<svg width="125" height="23" viewBox="0 0 125 23" fill="none" xmlns="http://www.w3.org/2000/svg">
<path d="M21.1406 8.33203C21.1367 7.96484 21.0508 7.70508 20.8828 7.55273C20.7187 7.40039 20.4765 7.32422 20.1562 7.32422C19.8398 7.32422 19.584 7.41992 19.3887 7.61133C19.1933 7.79883 19.0723 8.03516 19.0254 8.32031L21.1406 8.33203ZM23.4375 11.5195C23.1953 11.7031 22.7637 11.8633 22.1426 12C21.5215 12.1406 20.918 12.2109 20.332 12.2109C19.75 12.2109 19.2558 12.1836 18.8496 12.1289C18.4433 12.0742 18.041 11.9766 17.6426 11.8359C17.2441 11.6914 16.9023 11.5098 16.6172 11.291C16.3359 11.0684 16.1074 10.7812 15.9316 10.4297C15.7558 10.0742 15.668 9.65039 15.668 9.1582C15.668 8.66211 15.7578 8.20703 15.9375 7.79297C16.1172 7.37891 16.3496 7.04492 16.6348 6.79102C17.4277 6.08398 18.5762 5.73047 20.0801 5.73047C20.7949 5.73047 21.4746 5.86719 22.1191 6.14062C22.7637 6.42188 23.2226 6.84375 23.4961 7.40625C23.6523 7.72266 23.7305 8.07227 23.7305 8.45508L23.6601 9.42188L18.9082 9.39844C19.0019 9.75391 19.2285 10.0332 19.5879 10.2363C19.9512 10.4395 20.4453 10.541 21.0703 10.541C21.6953 10.541 22.416 10.3711 23.2324 10.0312H23.5488L23.4375 11.5195ZM30.416 9.81445L32.25 9.77344L32.2969 9.80859L31.5 12H26.4258C26.2148 11.9844 25.9082 11.9766 25.5058 11.9766L27.9492 7.62891L25.3066 7.69336C25.4043 7.42773 25.5586 7.06055 25.7695 6.5918C25.9805 6.12305 26.1113 5.83008 26.1621 5.71289L32.4609 5.80078V5.84766C32.0586 6.64844 31.3769 7.9707 30.416 9.81445ZM48.1875 11.8711C47.6914 12.0117 47.1562 12.1113 46.582 12.1699C46.0078 12.2324 45.3476 12.2637 44.6015 12.2637C43.8555 12.2637 43.039 12.1953 42.1523 12.0586C41.2656 11.9258 40.4316 11.7305 39.6504 11.4727C39.666 11.4062 39.8555 10.6738 40.2187 9.27539C40.2187 9.24805 40.2344 9.23438 40.2656 9.23438C40.9687 9.41016 41.5078 9.53906 41.8828 9.62109C42.8789 9.83984 43.9433 9.94922 45.0762 9.94922C45.6973 9.94922 46.0078 9.8418 46.0078 9.62695C46.0078 9.5293 45.9765 9.46094 45.914 9.42188C45.8515 9.37891 45.7422 9.3457 45.5859 9.32227C45.4297 9.29883 45.1777 9.26172 44.8301 9.21094C44.4824 9.15625 44.2168 9.11328 44.0332 9.08203C43.8496 9.05078 43.5918 9.00586 43.2598 8.94727C42.9277 8.88867 42.6738 8.83594 42.498 8.78906C42.3262 8.74219 42.1035 8.68164 41.8301 8.60742C41.5605 8.5293 41.3515 8.45117 41.2031 8.37305C41.0547 8.29492 40.8828 8.20117 40.6875 8.0918C40.4922 7.98242 40.3437 7.86523 40.2422 7.74023C40.1328 7.61523 40.0273 7.47461 39.9258 7.31836C39.7383 7.0332 39.6445 6.68359 39.6445 6.26953C39.6445 5.19141 40.1406 4.43164 41.1328 3.99023C42.125 3.54492 43.5976 3.32227 45.5508 3.32227C46.3555 3.32227 47.1758 3.40625 48.0117 3.57422C48.8515 3.74219 49.4668 3.92187 49.8574 4.11328C49.6387 4.94141 49.4453 5.60938 49.2773 6.11719C48.8125 5.98828 48.1406 5.86133 47.2617 5.73633C46.3828 5.60742 45.6015 5.54297 44.918 5.54297C44.2383 5.54297 43.8984 5.65234 43.8984 5.87109C43.8984 5.99609 43.9844 6.08984 44.1562 6.15234C44.332 6.21094 44.748 6.29492 45.4043 6.4043C46.0644 6.50977 46.5078 6.58203 46.7344 6.62109C48.4219 6.91016 49.5039 7.33594 49.9805 7.89844C50.332 8.31641 50.5078 8.76562 50.5078 9.24609C50.5117 9.72656 50.418 10.1367 50.2265 10.4766C50.039 10.8164 49.7773 11.0977 49.4414 11.3203C49.1055 11.543 48.6875 11.7266 48.1875 11.8711ZM62.0449 12.0352H53.8008C53.1484 12.0352 52.6523 12.0234 52.3125 12L52.3359 10.5762L52.3828 8.66016C52.3906 8.55078 52.4238 7.79492 52.4824 6.39258C52.5449 4.98633 52.5918 4.05273 52.623 3.5918C53.2129 3.52539 53.9433 3.49219 54.8144 3.49219C55.6894 3.49219 56.4121 3.49609 56.9824 3.50391L56.8476 6.43359C56.8398 6.82031 56.791 7.97266 56.7012 9.89062L61.2187 9.78516C61.6719 9.78516 62.041 9.80664 62.3262 9.84961C62.3262 10.0996 62.2949 10.4258 62.2324 10.8281L62.0449 12.0352ZM67.4531 3.52148L68.4726 3.50977C68.4883 3.60742 68.4961 3.71094 68.4961 3.82031L68.4668 4.60547L68.3086 11.9414L67.1894 11.9707C67.1894 11.9707 66.168 11.9805 64.125 12C64.1133 11.8867 64.1074 11.7422 64.1074 11.5664C64.1074 11.5664 64.1738 8.91016 64.3066 3.59766C65.1699 3.54687 66.2187 3.52148 67.4531 3.52148ZM75.2051 5.76562L75.0117 9.89062C76.043 9.87891 76.7656 9.79102 77.1797 9.62695C77.9531 9.32617 78.3398 8.71484 78.3398 7.79297C78.3398 7.03125 78.1445 6.49609 77.7539 6.1875C77.3633 5.875 76.9375 5.71875 76.4765 5.71875C76.1758 5.71875 75.7519 5.73438 75.2051 5.76562ZM70.5058 12.1289C70.5801 11.668 70.6933 10.5762 70.8457 8.85352C71.0019 7.12695 71.1113 5.42383 71.1738 3.74414C73.6035 3.54102 75.5957 3.43945 77.1504 3.43945C79.0801 3.43945 80.5078 3.89062 81.4336 4.79297C82.0976 5.44141 82.4297 6.31445 82.4297 7.41211C82.4297 9.06445 81.957 10.2461 81.0117 10.957C80.3672 11.4414 79.4258 11.7578 78.1875 11.9062C76.9531 12.0547 75.2187 12.1289 72.9844 12.1289H70.5058ZM94.6582 12.0527H90.9258L84.2285 12.0059L84.3281 9.94336C84.5273 5.80664 84.6269 3.68555 84.6269 3.58008C85.0957 3.56055 85.4023 3.55078 85.5469 3.55078H91.4765C92.793 3.55078 93.8574 3.54297 94.6699 3.52734L94.4297 5.73633C93.4844 5.82227 91.6015 5.86523 88.7812 5.86523C88.7695 5.95898 88.7558 6.11719 88.7402 6.33984C88.7285 6.5625 88.7187 6.73047 88.7109 6.84375C89.8359 6.82422 90.6211 6.81445 91.0664 6.81445L92.3555 6.84961C92.3555 7.02148 92.3281 7.31836 92.2734 7.74023C92.2226 8.16211 92.166 8.48828 92.1035 8.71875C92.041 8.73438 91.5547 8.74219 90.6445 8.74219H88.6348L88.5703 9.88477L94.7226 9.95508C94.7226 10.6934 94.7109 11.2207 94.6875 11.5371C94.668 11.8496 94.6582 12.0215 94.6582 12.0527ZM103.857 6.41016C103.857 5.95703 103.385 5.73047 102.439 5.73047C102.135 5.73047 101.686 5.74219 101.092 5.76562L100.992 7.41797C101.156 7.39844 101.418 7.37305 101.777 7.3418C102.141 7.31055 102.473 7.27344 102.773 7.23047C103.074 7.18359 103.33 7.09961 103.541 6.97852C103.752 6.85352 103.857 6.66406 103.857 6.41016ZM104.057 12.5039C103.912 12.2344 103.625 11.6582 103.195 10.7754C102.77 9.89258 102.484 9.2793 102.34 8.93555L100.904 9.03516L100.787 11.9473C100.787 11.9785 100.773 11.9961 100.746 12C99.5586 12.0195 98.6719 12.0391 98.0859 12.0586L96.7148 12.1055C96.7148 11.5352 96.7539 10.2383 96.832 8.21484L96.8672 7.24805L97.043 3.5918C97.0469 3.5957 97.0703 3.59375 97.1133 3.58594C97.7851 3.49219 99 3.44531 100.758 3.44531C102.516 3.44531 103.621 3.44922 104.074 3.45703C104.531 3.47266 104.98 3.51562 105.422 3.58594C107.156 3.86328 108.023 4.61133 108.023 5.83008C108.023 6.51367 107.814 7.05273 107.396 7.44727C106.982 7.83789 106.494 8.12695 105.932 8.31445C106.182 8.59961 106.66 9.22656 107.367 10.1953C108.078 11.1602 108.5 11.7246 108.633 11.8887L104.057 12.5039Z" fill="black"/>
<circle cx="35.5" cy="10.5" r="1.5" fill="#FFA500"/>
<path d="M117.731 3.00001L122.463 7.73138L117.731 12.4628" stroke="#FFA500" stroke-width="3"/>
<path d="M7.73137 3.00001L3 7.73138L7.73137 12.4628" stroke="#FFA500" stroke-width="3"/>
<path d="M30.8223 21.0684C30.7425 21.0049 30.5911 20.825 30.3681 20.5288C30.1468 20.231 30.0109 20.0527 29.9604 19.9941L29.7529 20.165L29.7187 20.751L29.7114 21.0049L28.3174 21.0269L28.4736 17.4502C29.2842 17.4046 29.7578 17.3826 29.8945 17.3843L29.8506 18.2876C29.8213 18.8052 29.805 19.1323 29.8017 19.269L30.5049 18.6099L31.9038 18.5854C31.9738 18.5854 32.0723 18.5871 32.1992 18.5903L31.9819 18.7856L31.3789 19.3618C31.2389 19.4806 31.1364 19.5701 31.0713 19.6304C31.2015 19.7687 31.3781 19.9657 31.6011 20.2212C31.824 20.4751 31.9551 20.6224 31.9941 20.6631C32.0332 20.7038 32.0796 20.7526 32.1333 20.8096C32.187 20.8665 32.2269 20.908 32.2529 20.9341L30.8223 21.0684ZM34.8506 19.4717C34.8489 19.3187 34.8131 19.2104 34.7431 19.147C34.6748 19.0835 34.5739 19.0518 34.4404 19.0518C34.3086 19.0518 34.202 19.0916 34.1206 19.1714C34.0392 19.2495 33.9888 19.348 33.9692 19.4668L34.8506 19.4717ZM35.8076 20.7998C35.7067 20.8763 35.5268 20.943 35.2681 21C35.0093 21.0586 34.7578 21.0879 34.5137 21.0879C34.2711 21.0879 34.0653 21.0765 33.896 21.0537C33.7267 21.0309 33.5591 20.9902 33.3931 20.9316C33.227 20.8714 33.0846 20.7957 32.9658 20.7046C32.8486 20.6118 32.7534 20.4922 32.6802 20.3457C32.6069 20.1976 32.5703 20.021 32.5703 19.8159C32.5703 19.6092 32.6077 19.4196 32.6826 19.2471C32.7575 19.0745 32.8543 18.9354 32.9731 18.8296C33.3035 18.535 33.782 18.3877 34.4087 18.3877C34.7065 18.3877 34.9897 18.4447 35.2583 18.5586C35.5268 18.6758 35.7181 18.8516 35.832 19.0859C35.8971 19.2178 35.9297 19.3634 35.9297 19.5229L35.9004 19.9258L33.9204 19.916C33.9595 20.0641 34.0539 20.1805 34.2036 20.2651C34.355 20.3498 34.5609 20.3921 34.8213 20.3921C35.0817 20.3921 35.382 20.3213 35.7222 20.1797H35.854L35.8076 20.7998ZM38.8447 19.4717C38.8431 19.3187 38.8073 19.2104 38.7373 19.147C38.6689 19.0835 38.568 19.0518 38.4346 19.0518C38.3027 19.0518 38.1961 19.0916 38.1147 19.1714C38.0334 19.2495 37.9829 19.348 37.9634 19.4668L38.8447 19.4717ZM39.8017 20.7998C39.7008 20.8763 39.521 20.943 39.2622 21C39.0034 21.0586 38.7519 21.0879 38.5078 21.0879C38.2653 21.0879 38.0594 21.0765 37.8901 21.0537C37.7209 21.0309 37.5532 20.9902 37.3872 20.9316C37.2212 20.8714 37.0788 20.7957 36.9599 20.7046C36.8428 20.6118 36.7475 20.4922 36.6743 20.3457C36.6011 20.1976 36.5644 20.021 36.5644 19.8159C36.5644 19.6092 36.6019 19.4196 36.6767 19.2471C36.7516 19.0745 36.8485 18.9354 36.9673 18.8296C37.2977 18.535 37.7762 18.3877 38.4028 18.3877C38.7007 18.3877 38.9839 18.4447 39.2524 18.5586C39.521 18.6758 39.7122 18.8516 39.8262 19.0859C39.8913 19.2178 39.9238 19.3634 39.9238 19.5229L39.8945 19.9258L37.9145 19.916C37.9536 20.0641 38.048 20.1805 38.1977 20.2651C38.3491 20.3498 38.555 20.3921 38.8154 20.3921C39.0758 20.3921 39.3761 20.3213 39.7163 20.1797H39.8481L39.8017 20.7998ZM42.624 20.3799C42.8079 20.3799 42.9536 20.318 43.061 20.1943C43.1684 20.0706 43.2222 19.9266 43.2222 19.7622C43.2222 19.5962 43.1701 19.4546 43.0659 19.3374C42.9634 19.2186 42.8193 19.1592 42.6338 19.1592C42.5101 19.1592 42.4027 19.1901 42.3115 19.252C42.139 19.3691 42.0527 19.5425 42.0527 19.772C42.0527 19.9364 42.1024 20.0788 42.2016 20.1992C42.3009 20.3197 42.4417 20.3799 42.624 20.3799ZM41.977 21.7593C41.2967 21.8276 40.8499 21.8618 40.6367 21.8618H40.6123C40.6074 21.6714 40.605 21.5729 40.605 21.5664L40.727 18.5732C40.7596 18.5488 40.8255 18.5293 40.9248 18.5146L41.4912 18.4292L41.7549 18.915C42.0446 18.5635 42.5264 18.3877 43.2002 18.3877C43.4785 18.3877 43.7316 18.4414 43.9595 18.5488C44.1873 18.6562 44.3664 18.8052 44.4966 18.9956C44.6268 19.186 44.6919 19.3936 44.6919 19.6182C44.6919 19.8411 44.6455 20.0446 44.5527 20.2285C44.4616 20.4124 44.3387 20.5671 44.1841 20.6924C44.0311 20.8161 43.8528 20.9137 43.6494 20.9854C43.4476 21.0553 43.2441 21.0903 43.039 21.0903C42.6321 21.0903 42.2895 21.0016 42.0112 20.8242V20.8413C42.0112 20.8429 42.0055 20.9577 41.9941 21.1855C41.9827 21.4134 41.977 21.6047 41.977 21.7593ZM49.0449 19.2471C48.3157 19.2471 47.9512 19.4074 47.9512 19.728C47.9512 19.9006 48.0236 20.034 48.1684 20.1284C48.3149 20.2212 48.529 20.2676 48.8105 20.2676C49.0937 20.2676 49.3696 20.2448 49.6382 20.1992L49.6553 20.9683C49.346 21.0496 49.0091 21.0903 48.6445 21.0903C48.2799 21.0903 47.9739 21.0618 47.7265 21.0049C47.4792 20.9495 47.2855 20.8877 47.1455 20.8193C47.0055 20.751 46.8818 20.6712 46.7744 20.5801C46.5433 20.3848 46.4285 20.1243 46.4302 19.7988C46.4302 19.597 46.47 19.4147 46.5498 19.252C46.6963 18.9541 46.9518 18.736 47.3164 18.5977C47.681 18.4577 48.083 18.3877 48.5224 18.3877C48.9619 18.3877 49.3786 18.4365 49.7724 18.5342L49.7114 19.3179C49.4624 19.2707 49.2402 19.2471 49.0449 19.2471ZM53.144 20.5288C53.0415 20.6948 52.8917 20.8299 52.6948 20.9341C52.4979 21.0382 52.2806 21.0903 52.043 21.0903C51.8053 21.0903 51.5978 21.0651 51.4204 21.0146C51.243 20.9658 51.0786 20.8926 50.9272 20.7949C50.7775 20.6973 50.657 20.5654 50.5659 20.3994C50.4748 20.2334 50.4292 20.0405 50.4292 19.8208C50.4292 19.5994 50.4699 19.396 50.5513 19.2104C50.6343 19.0233 50.7458 18.8711 50.8857 18.7539C51.1722 18.5098 51.5213 18.3877 51.9331 18.3877C52.2179 18.3877 52.4507 18.4235 52.6313 18.4951C52.812 18.5667 52.9715 18.6953 53.1098 18.8809L53.1147 18.3608L54.2182 18.4536L54.2109 20.9414L53.293 21.0098L53.144 20.5288ZM52.0014 19.3936C51.907 19.5026 51.8598 19.6336 51.8598 19.7866C51.8598 19.938 51.9062 20.0698 51.999 20.1821C52.0918 20.2928 52.2244 20.3481 52.397 20.3481C52.5695 20.3481 52.7029 20.2993 52.7973 20.2017C52.8934 20.1024 52.9414 19.9665 52.9414 19.7939C52.9414 19.6214 52.8934 19.4839 52.7973 19.3813C52.7013 19.2788 52.5679 19.2275 52.397 19.2275C52.2277 19.2275 52.0959 19.2829 52.0014 19.3936ZM55.0288 17.4893L56.4717 17.4209C56.4456 17.9645 56.4188 18.6245 56.3911 19.4009C56.3651 20.1756 56.3463 20.7095 56.3349 21.0024L54.9092 21.0415L54.9824 18.7344C55.0133 17.9971 55.0288 17.582 55.0288 17.4893ZM61.833 19.7817C61.833 19.3748 61.693 19.1714 61.4131 19.1714C61.2617 19.1714 61.1551 19.2096 61.0932 19.2861C60.9695 19.4359 60.9077 19.7443 60.9077 20.2114V20.978L59.4502 21.022V20.8242L59.4746 19.7085C59.4746 19.4839 59.4396 19.3301 59.3696 19.2471C59.3013 19.1624 59.1881 19.1201 59.0303 19.1201C58.8708 19.1201 58.7552 19.1755 58.6836 19.2861C58.5843 19.4359 58.5355 19.7288 58.5371 20.165L58.542 21.022L57.0503 21.0269L57.0649 20.7729C57.0812 20.3579 57.0959 19.8908 57.1089 19.3716C57.1219 18.8524 57.1284 18.5911 57.1284 18.5879L57.9219 18.4878L58.1831 18.9907C58.4549 18.5887 58.8968 18.3877 59.5088 18.3877C59.779 18.3877 59.9979 18.43 60.1655 18.5146C60.3348 18.5993 60.4862 18.7352 60.6196 18.9224C60.9077 18.5659 61.3439 18.3877 61.9282 18.3877C62.3742 18.3877 62.7192 18.5057 62.9634 18.7417C63.2075 18.9761 63.3296 19.2894 63.3296 19.6816L63.2856 21.0024L61.833 21.0269V19.7817ZM67.8022 20.5288C67.6997 20.6948 67.55 20.8299 67.353 20.9341C67.1561 21.0382 66.9388 21.0903 66.7012 21.0903C66.4635 21.0903 66.256 21.0651 66.0786 21.0146C65.9012 20.9658 65.7368 20.8926 65.5854 20.7949C65.4357 20.6973 65.3153 20.5654 65.2241 20.3994C65.133 20.2334 65.0874 20.0405 65.0874 19.8208C65.0874 19.5994 65.1281 19.396 65.2095 19.2104C65.2925 19.0233 65.404 18.8711 65.5439 18.7539C65.8304 18.5098 66.1795 18.3877 66.5913 18.3877C66.8761 18.3877 67.1089 18.4235 67.2895 18.4951C67.4702 18.5667 67.6297 18.6953 67.7681 18.8809L67.7729 18.3608L68.8764 18.4536L68.8691 20.9414L67.9512 21.0098L67.8022 20.5288ZM66.6597 19.3936C66.5653 19.5026 66.5181 19.6336 66.5181 19.7866C66.5181 19.938 66.5644 20.0698 66.6572 20.1821C66.75 20.2928 66.8826 20.3481 67.0552 20.3481C67.2277 20.3481 67.3612 20.2993 67.4556 20.2017C67.5516 20.1024 67.5996 19.9665 67.5996 19.7939C67.5996 19.6214 67.5516 19.4839 67.4556 19.3813C67.3595 19.2788 67.2261 19.2275 67.0552 19.2275C66.8859 19.2275 66.7541 19.2829 66.6597 19.3936ZM72.0014 19.4375C71.9087 19.3252 71.8004 19.269 71.6767 19.269C71.3594 19.269 71.1592 19.4049 71.0762 19.6768C71.0257 19.8411 71.0005 20.0356 71.0005 20.2603L70.9883 21L69.5307 21.0244C69.5324 20.8519 69.5552 20.0641 69.5991 18.6611L70.417 18.4878L70.6782 18.9907C70.8214 18.7808 71.0208 18.6278 71.2764 18.5317C71.5335 18.4357 71.8078 18.3877 72.0991 18.3877C72.4914 18.3877 72.8193 18.4666 73.083 18.6245C73.4411 18.8394 73.6209 19.1917 73.6225 19.6816C73.6225 19.7467 73.6168 19.9217 73.6055 20.2065C73.5941 20.4897 73.5851 20.7567 73.5786 21.0073L72.1235 21.0171L72.1382 19.855C72.1382 19.6873 72.0926 19.5482 72.0014 19.4375ZM76.8769 18.7002C76.8851 18.2591 76.8997 17.866 76.9209 17.521C76.9713 17.5194 77.1797 17.5112 77.5459 17.4966C77.9137 17.4803 78.1261 17.4722 78.1831 17.4722H78.1904V20.9072C78.1741 20.9154 78.1269 20.9259 78.0488 20.939L77.7705 20.9854C77.6631 21.0033 77.5776 21.0203 77.5141 21.0366C77.3302 20.7144 77.2236 20.5231 77.1943 20.4629C76.9599 20.7721 76.6637 20.965 76.3056 21.0415C76.1527 21.0741 75.9541 21.0903 75.7099 21.0903C75.4658 21.0903 75.2233 21.0382 74.9824 20.9341C74.7431 20.8283 74.5535 20.6777 74.4136 20.4824C74.2736 20.2871 74.2036 20.082 74.2036 19.8672C74.2036 19.3008 74.4445 18.8882 74.9263 18.6294C75.2257 18.4683 75.5553 18.3877 75.915 18.3877C76.0924 18.3877 76.2658 18.417 76.435 18.4756C76.6059 18.5326 76.7532 18.6074 76.8769 18.7002ZM76.2153 20.3799C76.3992 20.3799 76.5449 20.318 76.6523 20.1943C76.7598 20.0706 76.8135 19.9266 76.8135 19.7622C76.8135 19.5962 76.7614 19.4546 76.6572 19.3374C76.5547 19.2186 76.4106 19.1592 76.2251 19.1592C76.103 19.1592 75.9964 19.1901 75.9053 19.252C75.7327 19.3691 75.6457 19.5425 75.644 19.772C75.644 19.9364 75.6937 20.0788 75.793 20.1992C75.8922 20.3197 76.033 20.3799 76.2153 20.3799ZM80.1924 20.1846C80.7051 20.292 81.1266 20.3457 81.457 20.3457C81.7874 20.3457 81.9526 20.3213 81.9526 20.2725C81.9526 20.222 81.916 20.1854 81.8428 20.1626C81.7711 20.1382 81.5718 20.0983 81.2446 20.043C80.9191 19.9876 80.6896 19.9339 80.5561 19.8818C80.2046 19.7484 80.0288 19.5474 80.0288 19.2788C80.0304 19.0428 80.1208 18.8597 80.2998 18.7295C80.6107 18.5016 81.1152 18.3877 81.8135 18.3877C82.2318 18.3877 82.6444 18.439 83.0513 18.5415L82.9341 19.2251C82.8234 19.1974 82.6346 19.1698 82.3677 19.1421C82.1024 19.1144 81.868 19.1006 81.6645 19.1006C81.4627 19.1006 81.3618 19.1283 81.3618 19.1836C81.3618 19.2194 81.3821 19.2446 81.4228 19.2593C81.4652 19.2739 81.6051 19.2967 81.8428 19.3276C82.0804 19.3586 82.2505 19.3846 82.353 19.4058C82.7388 19.4839 82.9975 19.6157 83.1294 19.8013C83.214 19.9185 83.2563 20.047 83.2563 20.187C83.2563 20.3254 83.2417 20.436 83.2124 20.519C83.1457 20.7062 82.9829 20.8486 82.7241 20.9463C82.4669 21.0423 82.0755 21.0903 81.5498 21.0903C81.2747 21.0903 80.9891 21.0716 80.6929 21.0342C80.3966 20.9984 80.1761 20.9406 80.0312 20.8608L80.1924 20.1846ZM84.0229 17.4893L85.4658 17.4209C85.4398 17.9645 85.4129 18.6245 85.3852 19.4009C85.3592 20.1756 85.3405 20.7095 85.3291 21.0024L83.9033 21.0415L83.9765 18.7344C84.0075 17.9971 84.0229 17.582 84.0229 17.4893ZM87.5239 20.9976C86.8289 21.0073 86.3569 21.0049 86.1079 20.9902C86.1079 20.8926 86.1234 20.4971 86.1543 19.8037C86.1852 19.1104 86.2088 18.6872 86.2251 18.5342C86.6206 18.5081 86.9331 18.4951 87.1626 18.4951C87.3937 18.4951 87.5483 18.4976 87.6264 18.5024L87.5239 20.9976ZM87.2139 17.0815C87.4108 17.0815 87.5556 17.1287 87.6484 17.2231C87.7428 17.3159 87.79 17.4282 87.79 17.5601C87.79 17.6919 87.7371 17.7985 87.6313 17.8799C87.4637 18.0101 87.2195 18.0752 86.8989 18.0752C86.5783 18.0752 86.3797 18.0361 86.3032 17.958C86.2283 17.8799 86.1909 17.779 86.1909 17.6553C86.1893 17.5316 86.234 17.425 86.3252 17.3354C86.4977 17.1662 86.7939 17.0815 87.2139 17.0815ZM90.9931 18.7002C91.0013 18.2591 91.0159 17.866 91.0371 17.521C91.0875 17.5194 91.2959 17.5112 91.6621 17.4966C92.0299 17.4803 92.2423 17.4722 92.2993 17.4722H92.3066V20.9072C92.2903 20.9154 92.2431 20.9259 92.165 20.939L91.8867 20.9854C91.7793 21.0033 91.6938 21.0203 91.6304 21.0366C91.4464 20.7144 91.3398 20.5231 91.3105 20.4629C91.0762 20.7721 90.7799 20.965 90.4219 21.0415C90.2689 21.0741 90.0703 21.0903 89.8262 21.0903C89.582 21.0903 89.3395 21.0382 89.0986 20.9341C88.8594 20.8283 88.6697 20.6777 88.5298 20.4824C88.3898 20.2871 88.3198 20.082 88.3198 19.8672C88.3198 19.3008 88.5607 18.8882 89.0425 18.6294C89.3419 18.4683 89.6715 18.3877 90.0312 18.3877C90.2086 18.3877 90.382 18.417 90.5513 18.4756C90.7222 18.5326 90.8695 18.6074 90.9931 18.7002ZM90.3315 20.3799C90.5154 20.3799 90.6611 20.318 90.7685 20.1943C90.876 20.0706 90.9297 19.9266 90.9297 19.7622C90.9297 19.5962 90.8776 19.4546 90.7734 19.3374C90.6709 19.2186 90.5268 19.1592 90.3413 19.1592C90.2192 19.1592 90.1126 19.1901 90.0215 19.252C89.8489 19.3691 89.7619 19.5425 89.7602 19.772C89.7602 19.9364 89.8099 20.0788 89.9092 20.1992C90.0084 20.3197 90.1492 20.3799 90.3315 20.3799ZM95.2217 19.4717C95.22 19.3187 95.1842 19.2104 95.1142 19.147C95.0459 19.0835 94.945 19.0518 94.8115 19.0518C94.6797 19.0518 94.5731 19.0916 94.4917 19.1714C94.4103 19.2495 94.3598 19.348 94.3403 19.4668L95.2217 19.4717ZM96.1787 20.7998C96.0778 20.8763 95.8979 20.943 95.6391 21C95.3804 21.0586 95.1289 21.0879 94.8848 21.0879C94.6422 21.0879 94.4363 21.0765 94.2671 21.0537C94.0978 21.0309 93.9302 20.9902 93.7641 20.9316C93.5981 20.8714 93.4557 20.7957 93.3369 20.7046C93.2197 20.6118 93.1245 20.4922 93.0513 20.3457C92.978 20.1976 92.9414 20.021 92.9414 19.8159C92.9414 19.6092 92.9788 19.4196 93.0537 19.2471C93.1286 19.0745 93.2254 18.9354 93.3442 18.8296C93.6746 18.535 94.1531 18.3877 94.7798 18.3877C95.0776 18.3877 95.3608 18.4447 95.6294 18.5586C95.8979 18.6758 96.0892 18.8516 96.2031 19.0859C96.2682 19.2178 96.3008 19.3634 96.3008 19.5229L96.2715 19.9258L94.2915 19.916C94.3306 20.0641 94.425 20.1805 94.5747 20.2651C94.7261 20.3498 94.932 20.3921 95.1924 20.3921C95.4528 20.3921 95.7531 20.3213 96.0932 20.1797H96.2251L96.1787 20.7998Z" fill="#FFA500"/>
</svg>
