<svg width="618" height="363" viewBox="0 0 618 363" fill="none" xmlns="http://www.w3.org/2000/svg">
<rect x="1" y="20" width="616" height="342" fill="white" stroke="black" stroke-width="2"/>
<path d="M138.422 152.342C138.422 153.812 138.088 154.987 137.42 155.866C136.752 156.739 135.855 157.176 134.73 157.176C133.688 157.176 132.853 156.833 132.226 156.147V160.656H130.09V147.49H132.059L132.146 148.457C132.773 147.695 133.626 147.314 134.704 147.314C135.864 147.314 136.772 147.748 137.429 148.615C138.091 149.477 138.422 150.675 138.422 152.21V152.342ZM136.295 152.157C136.295 151.208 136.104 150.455 135.724 149.898C135.349 149.342 134.81 149.063 134.106 149.063C133.233 149.063 132.606 149.424 132.226 150.145V154.363C132.612 155.102 133.245 155.471 134.124 155.471C134.804 155.471 135.334 155.198 135.715 154.653C136.102 154.103 136.295 153.271 136.295 152.157ZM145.216 149.441C144.935 149.395 144.645 149.371 144.346 149.371C143.367 149.371 142.708 149.746 142.368 150.496V157H140.232V147.49H142.271L142.324 148.554C142.84 147.728 143.555 147.314 144.469 147.314C144.773 147.314 145.025 147.355 145.225 147.438L145.216 149.441ZM150.577 157.176C149.224 157.176 148.125 156.751 147.281 155.901C146.443 155.046 146.024 153.909 146.024 152.491V152.228C146.024 151.278 146.206 150.432 146.569 149.688C146.938 148.938 147.454 148.354 148.116 147.938C148.778 147.522 149.517 147.314 150.331 147.314C151.626 147.314 152.625 147.728 153.328 148.554C154.037 149.38 154.392 150.549 154.392 152.061V152.922H148.178C148.242 153.707 148.503 154.328 148.96 154.785C149.423 155.242 150.003 155.471 150.7 155.471C151.679 155.471 152.476 155.075 153.091 154.284L154.242 155.383C153.861 155.951 153.352 156.394 152.713 156.71C152.08 157.021 151.368 157.176 150.577 157.176ZM150.322 149.028C149.736 149.028 149.262 149.233 148.898 149.644C148.541 150.054 148.312 150.625 148.213 151.357H152.282V151.199C152.235 150.484 152.045 149.945 151.711 149.582C151.377 149.213 150.914 149.028 150.322 149.028ZM159.287 154.293L161.3 147.49H163.506L160.21 157H158.355L155.033 147.49H157.248L159.287 154.293ZM167.118 157H164.982V147.49H167.118V157ZM164.851 145.021C164.851 144.692 164.953 144.42 165.158 144.203C165.369 143.986 165.668 143.878 166.055 143.878C166.441 143.878 166.74 143.986 166.951 144.203C167.162 144.42 167.268 144.692 167.268 145.021C167.268 145.343 167.162 145.612 166.951 145.829C166.74 146.04 166.441 146.146 166.055 146.146C165.668 146.146 165.369 146.04 165.158 145.829C164.953 145.612 164.851 145.343 164.851 145.021ZM169.052 152.157C169.052 151.226 169.236 150.388 169.605 149.644C169.975 148.894 170.493 148.319 171.161 147.921C171.829 147.517 172.597 147.314 173.464 147.314C174.747 147.314 175.787 147.728 176.584 148.554C177.387 149.38 177.82 150.476 177.885 151.841L177.894 152.342C177.894 153.279 177.712 154.117 177.349 154.855C176.991 155.594 176.476 156.165 175.802 156.569C175.134 156.974 174.36 157.176 173.481 157.176C172.14 157.176 171.064 156.73 170.256 155.84C169.453 154.943 169.052 153.751 169.052 152.263V152.157ZM171.188 152.342C171.188 153.32 171.39 154.088 171.794 154.645C172.198 155.195 172.761 155.471 173.481 155.471C174.202 155.471 174.762 155.189 175.16 154.627C175.564 154.064 175.767 153.241 175.767 152.157C175.767 151.196 175.559 150.435 175.143 149.872C174.732 149.31 174.173 149.028 173.464 149.028C172.767 149.028 172.213 149.307 171.803 149.863C171.393 150.414 171.188 151.24 171.188 152.342ZM185.461 156.068C184.834 156.807 183.943 157.176 182.789 157.176C181.758 157.176 180.976 156.874 180.442 156.271C179.915 155.667 179.651 154.794 179.651 153.651V147.49H181.787V153.625C181.787 154.832 182.288 155.436 183.29 155.436C184.327 155.436 185.027 155.063 185.391 154.319V147.49H187.526V157H185.514L185.461 156.068ZM195.032 154.416C195.032 154.035 194.874 153.745 194.558 153.546C194.247 153.347 193.729 153.171 193.002 153.019C192.275 152.866 191.669 152.673 191.183 152.438C190.116 151.923 189.583 151.176 189.583 150.197C189.583 149.377 189.929 148.691 190.62 148.141C191.312 147.59 192.19 147.314 193.257 147.314C194.394 147.314 195.311 147.596 196.008 148.158C196.711 148.721 197.062 149.45 197.062 150.347H194.927C194.927 149.937 194.774 149.597 194.47 149.327C194.165 149.052 193.761 148.914 193.257 148.914C192.788 148.914 192.404 149.022 192.105 149.239C191.812 149.456 191.666 149.746 191.666 150.109C191.666 150.438 191.804 150.692 192.079 150.874C192.354 151.056 192.911 151.24 193.749 151.428C194.587 151.609 195.243 151.829 195.718 152.087C196.198 152.339 196.553 152.644 196.781 153.001C197.016 153.358 197.133 153.792 197.133 154.302C197.133 155.157 196.778 155.852 196.069 156.385C195.36 156.912 194.432 157.176 193.283 157.176C192.504 157.176 191.81 157.035 191.2 156.754C190.591 156.473 190.116 156.086 189.776 155.594C189.437 155.102 189.267 154.571 189.267 154.003H191.341C191.37 154.507 191.561 154.896 191.912 155.172C192.264 155.441 192.729 155.576 193.31 155.576C193.872 155.576 194.3 155.471 194.593 155.26C194.886 155.043 195.032 154.762 195.032 154.416ZM205.896 153.704C205.896 153.142 205.696 152.708 205.298 152.403C204.905 152.099 204.193 151.791 203.162 151.48C202.131 151.17 201.311 150.824 200.701 150.443C199.535 149.711 198.952 148.756 198.952 147.578C198.952 146.547 199.371 145.697 200.209 145.029C201.053 144.361 202.146 144.027 203.487 144.027C204.378 144.027 205.172 144.191 205.869 144.52C206.566 144.848 207.114 145.316 207.513 145.926C207.911 146.529 208.11 147.2 208.11 147.938H205.896C205.896 147.271 205.685 146.749 205.263 146.374C204.847 145.993 204.249 145.803 203.47 145.803C202.743 145.803 202.178 145.958 201.773 146.269C201.375 146.579 201.176 147.013 201.176 147.569C201.176 148.038 201.393 148.431 201.826 148.747C202.26 149.058 202.975 149.362 203.971 149.661C204.967 149.954 205.767 150.291 206.37 150.672C206.974 151.047 207.416 151.48 207.697 151.973C207.979 152.459 208.119 153.03 208.119 153.687C208.119 154.753 207.709 155.603 206.889 156.235C206.074 156.862 204.967 157.176 203.566 157.176C202.641 157.176 201.788 157.006 201.009 156.666C200.235 156.32 199.632 155.846 199.198 155.242C198.771 154.639 198.557 153.936 198.557 153.133H200.78C200.78 153.859 201.021 154.422 201.501 154.82C201.981 155.219 202.67 155.418 203.566 155.418C204.34 155.418 204.92 155.263 205.307 154.952C205.699 154.636 205.896 154.22 205.896 153.704ZM212.136 157H210V143.5H212.136V157ZM216.741 157H214.605V147.49H216.741V157ZM214.474 145.021C214.474 144.692 214.576 144.42 214.781 144.203C214.992 143.986 215.291 143.878 215.678 143.878C216.064 143.878 216.363 143.986 216.574 144.203C216.785 144.42 216.891 144.692 216.891 145.021C216.891 145.343 216.785 145.612 216.574 145.829C216.363 146.04 216.064 146.146 215.678 146.146C215.291 146.146 214.992 146.04 214.781 145.829C214.576 145.612 214.474 145.343 214.474 145.021ZM218.675 152.175C218.675 150.71 219.015 149.535 219.694 148.65C220.374 147.76 221.285 147.314 222.428 147.314C223.436 147.314 224.25 147.666 224.871 148.369V143.5H227.007V157H225.073L224.968 156.016C224.329 156.789 223.477 157.176 222.41 157.176C221.297 157.176 220.395 156.728 219.703 155.831C219.018 154.935 218.675 153.716 218.675 152.175ZM220.811 152.359C220.811 153.326 220.995 154.082 221.364 154.627C221.739 155.166 222.27 155.436 222.955 155.436C223.828 155.436 224.467 155.046 224.871 154.267V150.206C224.479 149.444 223.846 149.063 222.973 149.063C222.281 149.063 221.748 149.339 221.373 149.89C220.998 150.435 220.811 151.258 220.811 152.359ZM233.423 157.176C232.069 157.176 230.971 156.751 230.127 155.901C229.289 155.046 228.87 153.909 228.87 152.491V152.228C228.87 151.278 229.052 150.432 229.415 149.688C229.784 148.938 230.3 148.354 230.962 147.938C231.624 147.522 232.362 147.314 233.177 147.314C234.472 147.314 235.471 147.728 236.174 148.554C236.883 149.38 237.237 150.549 237.237 152.061V152.922H231.023C231.088 153.707 231.349 154.328 231.806 154.785C232.269 155.242 232.849 155.471 233.546 155.471C234.524 155.471 235.321 155.075 235.937 154.284L237.088 155.383C236.707 155.951 236.197 156.394 235.559 156.71C234.926 157.021 234.214 157.176 233.423 157.176ZM233.168 149.028C232.582 149.028 232.107 149.233 231.744 149.644C231.387 150.054 231.158 150.625 231.059 151.357H235.128V151.199C235.081 150.484 234.891 149.945 234.557 149.582C234.223 149.213 233.76 149.028 233.168 149.028Z" fill="black"/>
<path d="M423.076 146.49L423.138 147.589C423.841 146.739 424.764 146.314 425.906 146.314C427.887 146.314 428.895 147.448 428.93 149.716V156H426.794V149.839C426.794 149.235 426.662 148.79 426.398 148.503C426.141 148.21 425.716 148.063 425.124 148.063C424.263 148.063 423.621 148.453 423.199 149.232V156H421.063V146.49H423.076ZM435.302 156.176C433.948 156.176 432.85 155.751 432.006 154.901C431.168 154.046 430.749 152.909 430.749 151.491V151.228C430.749 150.278 430.931 149.432 431.294 148.688C431.663 147.938 432.179 147.354 432.841 146.938C433.503 146.522 434.241 146.314 435.056 146.314C436.351 146.314 437.35 146.728 438.053 147.554C438.762 148.38 439.116 149.549 439.116 151.061V151.922H432.902C432.967 152.707 433.228 153.328 433.685 153.785C434.147 154.242 434.728 154.471 435.425 154.471C436.403 154.471 437.2 154.075 437.815 153.284L438.967 154.383C438.586 154.951 438.076 155.394 437.438 155.71C436.805 156.021 436.093 156.176 435.302 156.176ZM435.047 148.028C434.461 148.028 433.986 148.233 433.623 148.644C433.266 149.054 433.037 149.625 432.938 150.357H437.007V150.199C436.96 149.484 436.77 148.945 436.436 148.582C436.102 148.213 435.639 148.028 435.047 148.028ZM444.196 149.619L446.007 146.49H448.38L445.471 151.175L448.477 156H446.121L444.223 152.748L442.333 156H439.96L442.966 151.175L440.065 146.49H442.421L444.196 149.619ZM452.511 144.179V146.49H454.189V148.072H452.511V153.381C452.511 153.744 452.581 154.008 452.722 154.172C452.868 154.33 453.126 154.409 453.495 154.409C453.741 154.409 453.99 154.38 454.242 154.321V155.974C453.756 156.108 453.287 156.176 452.836 156.176C451.195 156.176 450.375 155.271 450.375 153.46V148.072H448.811V146.49H450.375V144.179H452.511ZM462.724 152.704C462.724 152.142 462.524 151.708 462.126 151.403C461.733 151.099 461.021 150.791 459.99 150.48C458.959 150.17 458.139 149.824 457.529 149.443C456.363 148.711 455.78 147.756 455.78 146.578C455.78 145.547 456.199 144.697 457.037 144.029C457.881 143.361 458.974 143.027 460.315 143.027C461.206 143.027 462 143.191 462.697 143.52C463.395 143.848 463.942 144.316 464.341 144.926C464.739 145.529 464.938 146.2 464.938 146.938H462.724C462.724 146.271 462.513 145.749 462.091 145.374C461.675 144.993 461.077 144.803 460.298 144.803C459.571 144.803 459.006 144.958 458.602 145.269C458.203 145.579 458.004 146.013 458.004 146.569C458.004 147.038 458.221 147.431 458.654 147.747C459.088 148.058 459.803 148.362 460.799 148.661C461.795 148.954 462.595 149.291 463.198 149.672C463.802 150.047 464.244 150.48 464.525 150.973C464.807 151.459 464.947 152.03 464.947 152.687C464.947 153.753 464.537 154.603 463.717 155.235C462.902 155.862 461.795 156.176 460.395 156.176C459.469 156.176 458.616 156.006 457.837 155.666C457.063 155.32 456.46 154.846 456.026 154.242C455.599 153.639 455.385 152.936 455.385 152.133H457.608C457.608 152.859 457.849 153.422 458.329 153.82C458.81 154.219 459.498 154.418 460.395 154.418C461.168 154.418 461.748 154.263 462.135 153.952C462.527 153.636 462.724 153.22 462.724 152.704ZM468.964 156H466.828V142.5H468.964V156ZM473.569 156H471.434V146.49H473.569V156ZM471.302 144.021C471.302 143.692 471.404 143.42 471.609 143.203C471.82 142.986 472.119 142.878 472.506 142.878C472.893 142.878 473.191 142.986 473.402 143.203C473.613 143.42 473.719 143.692 473.719 144.021C473.719 144.343 473.613 144.612 473.402 144.829C473.191 145.04 472.893 145.146 472.506 145.146C472.119 145.146 471.82 145.04 471.609 144.829C471.404 144.612 471.302 144.343 471.302 144.021ZM475.503 151.175C475.503 149.71 475.843 148.535 476.522 147.65C477.202 146.76 478.113 146.314 479.256 146.314C480.264 146.314 481.078 146.666 481.699 147.369V142.5H483.835V156H481.901L481.796 155.016C481.157 155.789 480.305 156.176 479.238 156.176C478.125 156.176 477.223 155.728 476.531 154.831C475.846 153.935 475.503 152.716 475.503 151.175ZM477.639 151.359C477.639 152.326 477.823 153.082 478.192 153.627C478.567 154.166 479.098 154.436 479.783 154.436C480.656 154.436 481.295 154.046 481.699 153.267V149.206C481.307 148.444 480.674 148.063 479.801 148.063C479.109 148.063 478.576 148.339 478.201 148.89C477.826 149.435 477.639 150.258 477.639 151.359ZM490.251 156.176C488.897 156.176 487.799 155.751 486.955 154.901C486.117 154.046 485.698 152.909 485.698 151.491V151.228C485.698 150.278 485.88 149.432 486.243 148.688C486.612 147.938 487.128 147.354 487.79 146.938C488.452 146.522 489.19 146.314 490.005 146.314C491.3 146.314 492.299 146.728 493.002 147.554C493.711 148.38 494.065 149.549 494.065 151.061V151.922H487.852C487.916 152.707 488.177 153.328 488.634 153.785C489.097 154.242 489.677 154.471 490.374 154.471C491.353 154.471 492.149 154.075 492.765 153.284L493.916 154.383C493.535 154.951 493.025 155.394 492.387 155.71C491.754 156.021 491.042 156.176 490.251 156.176ZM489.996 148.028C489.41 148.028 488.936 148.233 488.572 148.644C488.215 149.054 487.986 149.625 487.887 150.357H491.956V150.199C491.909 149.484 491.719 148.945 491.385 148.582C491.051 148.213 490.588 148.028 489.996 148.028Z" fill="black"/>
<path d="M153.422 216.342C153.422 217.812 153.088 218.987 152.42 219.866C151.752 220.739 150.855 221.176 149.73 221.176C148.688 221.176 147.853 220.833 147.226 220.147V224.656H145.09V211.49H147.059L147.146 212.457C147.773 211.695 148.626 211.314 149.704 211.314C150.864 211.314 151.772 211.748 152.429 212.615C153.091 213.477 153.422 214.675 153.422 216.21V216.342ZM151.295 216.157C151.295 215.208 151.104 214.455 150.724 213.898C150.349 213.342 149.81 213.063 149.106 213.063C148.233 213.063 147.606 213.424 147.226 214.145V218.363C147.612 219.102 148.245 219.471 149.124 219.471C149.804 219.471 150.334 219.198 150.715 218.653C151.102 218.103 151.295 217.271 151.295 216.157ZM160.216 213.441C159.935 213.395 159.645 213.371 159.346 213.371C158.367 213.371 157.708 213.746 157.368 214.496V221H155.232V211.49H157.271L157.324 212.554C157.84 211.728 158.555 211.314 159.469 211.314C159.773 211.314 160.025 211.355 160.225 211.438L160.216 213.441ZM165.577 221.176C164.224 221.176 163.125 220.751 162.281 219.901C161.443 219.046 161.024 217.909 161.024 216.491V216.228C161.024 215.278 161.206 214.432 161.569 213.688C161.938 212.938 162.454 212.354 163.116 211.938C163.778 211.522 164.517 211.314 165.331 211.314C166.626 211.314 167.625 211.728 168.328 212.554C169.037 213.38 169.392 214.549 169.392 216.061V216.922H163.178C163.242 217.707 163.503 218.328 163.96 218.785C164.423 219.242 165.003 219.471 165.7 219.471C166.679 219.471 167.476 219.075 168.091 218.284L169.242 219.383C168.861 219.951 168.352 220.394 167.713 220.71C167.08 221.021 166.368 221.176 165.577 221.176ZM165.322 213.028C164.736 213.028 164.262 213.233 163.898 213.644C163.541 214.054 163.312 214.625 163.213 215.357H167.282V215.199C167.235 214.484 167.045 213.945 166.711 213.582C166.377 213.213 165.914 213.028 165.322 213.028ZM174.287 218.293L176.3 211.49H178.506L175.21 221H173.355L170.033 211.49H172.248L174.287 218.293ZM182.118 221H179.982V211.49H182.118V221ZM179.851 209.021C179.851 208.692 179.953 208.42 180.158 208.203C180.369 207.986 180.668 207.878 181.055 207.878C181.441 207.878 181.74 207.986 181.951 208.203C182.162 208.42 182.268 208.692 182.268 209.021C182.268 209.343 182.162 209.612 181.951 209.829C181.74 210.04 181.441 210.146 181.055 210.146C180.668 210.146 180.369 210.04 180.158 209.829C179.953 209.612 179.851 209.343 179.851 209.021ZM184.052 216.157C184.052 215.226 184.236 214.388 184.605 213.644C184.975 212.894 185.493 212.319 186.161 211.921C186.829 211.517 187.597 211.314 188.464 211.314C189.747 211.314 190.787 211.728 191.584 212.554C192.387 213.38 192.82 214.476 192.885 215.841L192.894 216.342C192.894 217.279 192.712 218.117 192.349 218.855C191.991 219.594 191.476 220.165 190.802 220.569C190.134 220.974 189.36 221.176 188.481 221.176C187.14 221.176 186.064 220.73 185.256 219.84C184.453 218.943 184.052 217.751 184.052 216.263V216.157ZM186.188 216.342C186.188 217.32 186.39 218.088 186.794 218.645C187.198 219.195 187.761 219.471 188.481 219.471C189.202 219.471 189.762 219.189 190.16 218.627C190.564 218.064 190.767 217.241 190.767 216.157C190.767 215.196 190.559 214.435 190.143 213.872C189.732 213.31 189.173 213.028 188.464 213.028C187.767 213.028 187.213 213.307 186.803 213.863C186.393 214.414 186.188 215.24 186.188 216.342ZM200.461 220.068C199.834 220.807 198.943 221.176 197.789 221.176C196.758 221.176 195.976 220.874 195.442 220.271C194.915 219.667 194.651 218.794 194.651 217.651V211.49H196.787V217.625C196.787 218.832 197.288 219.436 198.29 219.436C199.327 219.436 200.027 219.063 200.391 218.319V211.49H202.526V221H200.514L200.461 220.068ZM210.032 218.416C210.032 218.035 209.874 217.745 209.558 217.546C209.247 217.347 208.729 217.171 208.002 217.019C207.275 216.866 206.669 216.673 206.183 216.438C205.116 215.923 204.583 215.176 204.583 214.197C204.583 213.377 204.929 212.691 205.62 212.141C206.312 211.59 207.19 211.314 208.257 211.314C209.394 211.314 210.311 211.596 211.008 212.158C211.711 212.721 212.062 213.45 212.062 214.347H209.927C209.927 213.937 209.774 213.597 209.47 213.327C209.165 213.052 208.761 212.914 208.257 212.914C207.788 212.914 207.404 213.022 207.105 213.239C206.812 213.456 206.666 213.746 206.666 214.109C206.666 214.438 206.804 214.692 207.079 214.874C207.354 215.056 207.911 215.24 208.749 215.428C209.587 215.609 210.243 215.829 210.718 216.087C211.198 216.339 211.553 216.644 211.781 217.001C212.016 217.358 212.133 217.792 212.133 218.302C212.133 219.157 211.778 219.852 211.069 220.385C210.36 220.912 209.432 221.176 208.283 221.176C207.504 221.176 206.81 221.035 206.2 220.754C205.591 220.473 205.116 220.086 204.776 219.594C204.437 219.102 204.267 218.571 204.267 218.003H206.341C206.37 218.507 206.561 218.896 206.912 219.172C207.264 219.441 207.729 219.576 208.31 219.576C208.872 219.576 209.3 219.471 209.593 219.26C209.886 219.043 210.032 218.762 210.032 218.416ZM220.896 217.704C220.896 217.142 220.696 216.708 220.298 216.403C219.905 216.099 219.193 215.791 218.162 215.48C217.131 215.17 216.311 214.824 215.701 214.443C214.535 213.711 213.952 212.756 213.952 211.578C213.952 210.547 214.371 209.697 215.209 209.029C216.053 208.361 217.146 208.027 218.487 208.027C219.378 208.027 220.172 208.191 220.869 208.52C221.566 208.848 222.114 209.316 222.513 209.926C222.911 210.529 223.11 211.2 223.11 211.938H220.896C220.896 211.271 220.685 210.749 220.263 210.374C219.847 209.993 219.249 209.803 218.47 209.803C217.743 209.803 217.178 209.958 216.773 210.269C216.375 210.579 216.176 211.013 216.176 211.569C216.176 212.038 216.393 212.431 216.826 212.747C217.26 213.058 217.975 213.362 218.971 213.661C219.967 213.954 220.767 214.291 221.37 214.672C221.974 215.047 222.416 215.48 222.697 215.973C222.979 216.459 223.119 217.03 223.119 217.687C223.119 218.753 222.709 219.603 221.889 220.235C221.074 220.862 219.967 221.176 218.566 221.176C217.641 221.176 216.788 221.006 216.009 220.666C215.235 220.32 214.632 219.846 214.198 219.242C213.771 218.639 213.557 217.936 213.557 217.133H215.78C215.78 217.859 216.021 218.422 216.501 218.82C216.981 219.219 217.67 219.418 218.566 219.418C219.34 219.418 219.92 219.263 220.307 218.952C220.699 218.636 220.896 218.22 220.896 217.704ZM227.136 221H225V207.5H227.136V221ZM231.741 221H229.605V211.49H231.741V221ZM229.474 209.021C229.474 208.692 229.576 208.42 229.781 208.203C229.992 207.986 230.291 207.878 230.678 207.878C231.064 207.878 231.363 207.986 231.574 208.203C231.785 208.42 231.891 208.692 231.891 209.021C231.891 209.343 231.785 209.612 231.574 209.829C231.363 210.04 231.064 210.146 230.678 210.146C230.291 210.146 229.992 210.04 229.781 209.829C229.576 209.612 229.474 209.343 229.474 209.021ZM233.675 216.175C233.675 214.71 234.015 213.535 234.694 212.65C235.374 211.76 236.285 211.314 237.428 211.314C238.436 211.314 239.25 211.666 239.871 212.369V207.5H242.007V221H240.073L239.968 220.016C239.329 220.789 238.477 221.176 237.41 221.176C236.297 221.176 235.395 220.728 234.703 219.831C234.018 218.935 233.675 217.716 233.675 216.175ZM235.811 216.359C235.811 217.326 235.995 218.082 236.364 218.627C236.739 219.166 237.27 219.436 237.955 219.436C238.828 219.436 239.467 219.046 239.871 218.267V214.206C239.479 213.444 238.846 213.063 237.973 213.063C237.281 213.063 236.748 213.339 236.373 213.89C235.998 214.435 235.811 215.258 235.811 216.359ZM248.423 221.176C247.069 221.176 245.971 220.751 245.127 219.901C244.289 219.046 243.87 217.909 243.87 216.491V216.228C243.87 215.278 244.052 214.432 244.415 213.688C244.784 212.938 245.3 212.354 245.962 211.938C246.624 211.522 247.362 211.314 248.177 211.314C249.472 211.314 250.471 211.728 251.174 212.554C251.883 213.38 252.237 214.549 252.237 216.061V216.922H246.023C246.088 217.707 246.349 218.328 246.806 218.785C247.269 219.242 247.849 219.471 248.546 219.471C249.524 219.471 250.321 219.075 250.937 218.284L252.088 219.383C251.707 219.951 251.197 220.394 250.559 220.71C249.926 221.021 249.214 221.176 248.423 221.176ZM248.168 213.028C247.582 213.028 247.107 213.233 246.744 213.644C246.387 214.054 246.158 214.625 246.059 215.357H250.128V215.199C250.081 214.484 249.891 213.945 249.557 213.582C249.223 213.213 248.76 213.028 248.168 213.028ZM258.812 216.069H256.333V221H254.109V208.203H258.609C260.086 208.203 261.226 208.534 262.028 209.196C262.831 209.858 263.232 210.816 263.232 212.07C263.232 212.926 263.024 213.644 262.608 214.224C262.198 214.798 261.624 215.24 260.886 215.551L263.76 220.886V221H261.378L258.812 216.069ZM256.333 214.285H258.618C259.368 214.285 259.954 214.098 260.376 213.723C260.798 213.342 261.009 212.823 261.009 212.167C261.009 211.481 260.812 210.951 260.42 210.576C260.033 210.201 259.453 210.008 258.68 209.996H256.333V214.285ZM270.817 221C270.724 220.818 270.642 220.522 270.571 220.112C269.892 220.821 269.06 221.176 268.075 221.176C267.12 221.176 266.341 220.903 265.737 220.358C265.134 219.813 264.832 219.14 264.832 218.337C264.832 217.323 265.207 216.547 265.957 216.008C266.713 215.463 267.791 215.19 269.191 215.19H270.501V214.566C270.501 214.074 270.363 213.682 270.088 213.389C269.812 213.09 269.394 212.94 268.831 212.94C268.345 212.94 267.946 213.063 267.636 213.31C267.325 213.55 267.17 213.857 267.17 214.232H265.034C265.034 213.711 265.207 213.225 265.553 212.773C265.898 212.316 266.367 211.959 266.959 211.701C267.557 211.443 268.222 211.314 268.954 211.314C270.067 211.314 270.955 211.596 271.617 212.158C272.279 212.715 272.619 213.5 272.637 214.514V218.803C272.637 219.658 272.757 220.341 272.997 220.851V221H270.817ZM268.471 219.462C268.893 219.462 269.288 219.359 269.657 219.154C270.032 218.949 270.313 218.674 270.501 218.328V216.535H269.35C268.559 216.535 267.964 216.673 267.565 216.948C267.167 217.224 266.968 217.613 266.968 218.117C266.968 218.527 267.103 218.855 267.372 219.102C267.647 219.342 268.014 219.462 268.471 219.462ZM276.855 211.49L276.917 212.589C277.62 211.739 278.543 211.314 279.686 211.314C281.666 211.314 282.674 212.448 282.709 214.716V221H280.573V214.839C280.573 214.235 280.441 213.79 280.178 213.503C279.92 213.21 279.495 213.063 278.903 213.063C278.042 213.063 277.4 213.453 276.979 214.232V221H274.843V211.49H276.855ZM284.52 216.175C284.52 214.698 284.865 213.521 285.557 212.642C286.254 211.757 287.177 211.314 288.325 211.314C289.409 211.314 290.262 211.692 290.883 212.448L290.979 211.49H292.904V220.71C292.904 221.958 292.515 222.942 291.735 223.663C290.962 224.384 289.916 224.744 288.598 224.744C287.9 224.744 287.218 224.598 286.55 224.305C285.888 224.018 285.384 223.64 285.038 223.171L286.049 221.888C286.705 222.667 287.514 223.057 288.475 223.057C289.184 223.057 289.743 222.863 290.153 222.477C290.563 222.096 290.769 221.533 290.769 220.789V220.147C290.153 220.833 289.333 221.176 288.308 221.176C287.194 221.176 286.283 220.733 285.574 219.849C284.871 218.964 284.52 217.739 284.52 216.175ZM286.646 216.359C286.646 217.314 286.84 218.067 287.227 218.618C287.619 219.163 288.161 219.436 288.853 219.436C289.714 219.436 290.353 219.066 290.769 218.328V214.145C290.364 213.424 289.731 213.063 288.87 213.063C288.167 213.063 287.619 213.342 287.227 213.898C286.84 214.455 286.646 215.275 286.646 216.359ZM299.294 221.176C297.94 221.176 296.842 220.751 295.998 219.901C295.16 219.046 294.741 217.909 294.741 216.491V216.228C294.741 215.278 294.923 214.432 295.286 213.688C295.655 212.938 296.171 212.354 296.833 211.938C297.495 211.522 298.233 211.314 299.048 211.314C300.343 211.314 301.342 211.728 302.045 212.554C302.754 213.38 303.108 214.549 303.108 216.061V216.922H296.895C296.959 217.707 297.22 218.328 297.677 218.785C298.14 219.242 298.72 219.471 299.417 219.471C300.396 219.471 301.192 219.075 301.808 218.284L302.959 219.383C302.578 219.951 302.068 220.394 301.43 220.71C300.797 221.021 300.085 221.176 299.294 221.176ZM299.039 213.028C298.453 213.028 297.979 213.233 297.615 213.644C297.258 214.054 297.029 214.625 296.93 215.357H300.999V215.199C300.952 214.484 300.762 213.945 300.428 213.582C300.094 213.213 299.631 213.028 299.039 213.028Z" fill="black"/>
<path d="M356.076 78.4902L356.138 79.5889C356.841 78.7393 357.764 78.3145 358.906 78.3145C360.887 78.3145 361.895 79.4482 361.93 81.7158V88H359.794V81.8389C359.794 81.2354 359.662 80.79 359.398 80.5029C359.141 80.21 358.716 80.0635 358.124 80.0635C357.263 80.0635 356.621 80.4531 356.199 81.2324V88H354.063V78.4902H356.076ZM368.302 88.1758C366.948 88.1758 365.85 87.751 365.006 86.9014C364.168 86.0459 363.749 84.9092 363.749 83.4912V83.2275C363.749 82.2783 363.931 81.4316 364.294 80.6875C364.663 79.9375 365.179 79.3545 365.841 78.9385C366.503 78.5225 367.241 78.3145 368.056 78.3145C369.351 78.3145 370.35 78.7275 371.053 79.5537C371.762 80.3799 372.116 81.5488 372.116 83.0605V83.9219H365.902C365.967 84.707 366.228 85.3281 366.685 85.7852C367.147 86.2422 367.728 86.4707 368.425 86.4707C369.403 86.4707 370.2 86.0752 370.815 85.2842L371.967 86.3828C371.586 86.9512 371.076 87.3936 370.438 87.71C369.805 88.0205 369.093 88.1758 368.302 88.1758ZM368.047 80.0283C367.461 80.0283 366.986 80.2334 366.623 80.6436C366.266 81.0537 366.037 81.625 365.938 82.3574H370.007V82.1992C369.96 81.4844 369.77 80.9453 369.436 80.582C369.102 80.2129 368.639 80.0283 368.047 80.0283ZM377.196 81.6191L379.007 78.4902H381.38L378.471 83.1748L381.477 88H379.121L377.223 84.748L375.333 88H372.96L375.966 83.1748L373.065 78.4902H375.421L377.196 81.6191ZM385.511 76.1787V78.4902H387.189V80.0723H385.511V85.3809C385.511 85.7441 385.581 86.0078 385.722 86.1719C385.868 86.3301 386.126 86.4092 386.495 86.4092C386.741 86.4092 386.99 86.3799 387.242 86.3213V87.9736C386.756 88.1084 386.287 88.1758 385.836 88.1758C384.195 88.1758 383.375 87.2705 383.375 85.46V80.0723H381.811V78.4902H383.375V76.1787H385.511ZM395.724 84.7041C395.724 84.1416 395.524 83.708 395.126 83.4033C394.733 83.0986 394.021 82.791 392.99 82.4805C391.959 82.1699 391.139 81.8242 390.529 81.4434C389.363 80.7109 388.78 79.7559 388.78 78.5781C388.78 77.5469 389.199 76.6973 390.037 76.0293C390.881 75.3613 391.974 75.0273 393.315 75.0273C394.206 75.0273 395 75.1914 395.697 75.5195C396.395 75.8477 396.942 76.3164 397.341 76.9258C397.739 77.5293 397.938 78.2002 397.938 78.9385H395.724C395.724 78.2705 395.513 77.749 395.091 77.374C394.675 76.9932 394.077 76.8027 393.298 76.8027C392.571 76.8027 392.006 76.958 391.602 77.2686C391.203 77.5791 391.004 78.0127 391.004 78.5693C391.004 79.0381 391.221 79.4307 391.654 79.7471C392.088 80.0576 392.803 80.3623 393.799 80.6611C394.795 80.9541 395.595 81.291 396.198 81.6719C396.802 82.0469 397.244 82.4805 397.525 82.9727C397.807 83.459 397.947 84.0303 397.947 84.6865C397.947 85.7529 397.537 86.6025 396.717 87.2354C395.902 87.8623 394.795 88.1758 393.395 88.1758C392.469 88.1758 391.616 88.0059 390.837 87.666C390.063 87.3203 389.46 86.8457 389.026 86.2422C388.599 85.6387 388.385 84.9355 388.385 84.1328H390.608C390.608 84.8594 390.849 85.4219 391.329 85.8203C391.81 86.2188 392.498 86.418 393.395 86.418C394.168 86.418 394.748 86.2627 395.135 85.9521C395.527 85.6357 395.724 85.2197 395.724 84.7041ZM401.964 88H399.828V74.5H401.964V88ZM406.569 88H404.434V78.4902H406.569V88ZM404.302 76.0205C404.302 75.6924 404.404 75.4199 404.609 75.2031C404.82 74.9863 405.119 74.8779 405.506 74.8779C405.893 74.8779 406.191 74.9863 406.402 75.2031C406.613 75.4199 406.719 75.6924 406.719 76.0205C406.719 76.3428 406.613 76.6123 406.402 76.8291C406.191 77.04 405.893 77.1455 405.506 77.1455C405.119 77.1455 404.82 77.04 404.609 76.8291C404.404 76.6123 404.302 76.3428 404.302 76.0205ZM408.503 83.1748C408.503 81.71 408.843 80.5352 409.522 79.6504C410.202 78.7598 411.113 78.3145 412.256 78.3145C413.264 78.3145 414.078 78.666 414.699 79.3691V74.5H416.835V88H414.901L414.796 87.0156C414.157 87.7891 413.305 88.1758 412.238 88.1758C411.125 88.1758 410.223 87.7275 409.531 86.8311C408.846 85.9346 408.503 84.7158 408.503 83.1748ZM410.639 83.3594C410.639 84.3262 410.823 85.082 411.192 85.627C411.567 86.166 412.098 86.4355 412.783 86.4355C413.656 86.4355 414.295 86.0459 414.699 85.2666V81.2061C414.307 80.4443 413.674 80.0635 412.801 80.0635C412.109 80.0635 411.576 80.3389 411.201 80.8896C410.826 81.4346 410.639 82.2578 410.639 83.3594ZM423.251 88.1758C421.897 88.1758 420.799 87.751 419.955 86.9014C419.117 86.0459 418.698 84.9092 418.698 83.4912V83.2275C418.698 82.2783 418.88 81.4316 419.243 80.6875C419.612 79.9375 420.128 79.3545 420.79 78.9385C421.452 78.5225 422.19 78.3145 423.005 78.3145C424.3 78.3145 425.299 78.7275 426.002 79.5537C426.711 80.3799 427.065 81.5488 427.065 83.0605V83.9219H420.852C420.916 84.707 421.177 85.3281 421.634 85.7852C422.097 86.2422 422.677 86.4707 423.374 86.4707C424.353 86.4707 425.149 86.0752 425.765 85.2842L426.916 86.3828C426.535 86.9512 426.025 87.3936 425.387 87.71C424.754 88.0205 424.042 88.1758 423.251 88.1758ZM422.996 80.0283C422.41 80.0283 421.936 80.2334 421.572 80.6436C421.215 81.0537 420.986 81.625 420.887 82.3574H424.956V82.1992C424.909 81.4844 424.719 80.9453 424.385 80.582C424.051 80.2129 423.588 80.0283 422.996 80.0283ZM433.64 83.0693H431.161V88H428.938V75.2031H433.438C434.914 75.2031 436.054 75.5342 436.856 76.1963C437.659 76.8584 438.061 77.8164 438.061 79.0703C438.061 79.9258 437.853 80.6436 437.437 81.2236C437.026 81.7979 436.452 82.2402 435.714 82.5508L438.588 87.8857V88H436.206L433.64 83.0693ZM431.161 81.2852H433.446C434.196 81.2852 434.782 81.0977 435.204 80.7227C435.626 80.3418 435.837 79.8232 435.837 79.167C435.837 78.4814 435.641 77.9512 435.248 77.5762C434.861 77.2012 434.281 77.0078 433.508 76.9961H431.161V81.2852ZM445.646 88C445.552 87.8184 445.47 87.5225 445.399 87.1123C444.72 87.8213 443.888 88.1758 442.903 88.1758C441.948 88.1758 441.169 87.9033 440.565 87.3584C439.962 86.8135 439.66 86.1396 439.66 85.3369C439.66 84.3232 440.035 83.5469 440.785 83.0078C441.541 82.4629 442.619 82.1904 444.02 82.1904H445.329V81.5664C445.329 81.0742 445.191 80.6816 444.916 80.3887C444.641 80.0898 444.222 79.9404 443.659 79.9404C443.173 79.9404 442.774 80.0635 442.464 80.3096C442.153 80.5498 441.998 80.8574 441.998 81.2324H439.862C439.862 80.7109 440.035 80.2246 440.381 79.7734C440.727 79.3164 441.195 78.959 441.787 78.7012C442.385 78.4434 443.05 78.3145 443.782 78.3145C444.896 78.3145 445.783 78.5957 446.445 79.1582C447.107 79.7148 447.447 80.5 447.465 81.5137V85.8027C447.465 86.6582 447.585 87.3408 447.825 87.8506V88H445.646ZM443.299 86.4619C443.721 86.4619 444.116 86.3594 444.485 86.1543C444.86 85.9492 445.142 85.6738 445.329 85.3281V83.5352H444.178C443.387 83.5352 442.792 83.6729 442.394 83.9482C441.995 84.2236 441.796 84.6133 441.796 85.1172C441.796 85.5273 441.931 85.8555 442.2 86.1016C442.476 86.3418 442.842 86.4619 443.299 86.4619ZM451.684 78.4902L451.745 79.5889C452.448 78.7393 453.371 78.3145 454.514 78.3145C456.494 78.3145 457.502 79.4482 457.537 81.7158V88H455.401V81.8389C455.401 81.2354 455.27 80.79 455.006 80.5029C454.748 80.21 454.323 80.0635 453.731 80.0635C452.87 80.0635 452.229 80.4531 451.807 81.2324V88H449.671V78.4902H451.684ZM459.348 83.1748C459.348 81.6982 459.693 80.5205 460.385 79.6416C461.082 78.7568 462.005 78.3145 463.153 78.3145C464.237 78.3145 465.09 78.6924 465.711 79.4482L465.808 78.4902H467.732V87.71C467.732 88.958 467.343 89.9424 466.563 90.6631C465.79 91.3838 464.744 91.7441 463.426 91.7441C462.729 91.7441 462.046 91.5977 461.378 91.3047C460.716 91.0176 460.212 90.6396 459.866 90.1709L460.877 88.8877C461.533 89.667 462.342 90.0566 463.303 90.0566C464.012 90.0566 464.571 89.8633 464.981 89.4766C465.392 89.0957 465.597 88.5332 465.597 87.7891V87.1475C464.981 87.833 464.161 88.1758 463.136 88.1758C462.022 88.1758 461.111 87.7334 460.402 86.8486C459.699 85.9639 459.348 84.7393 459.348 83.1748ZM461.475 83.3594C461.475 84.3145 461.668 85.0674 462.055 85.6182C462.447 86.1631 462.989 86.4355 463.681 86.4355C464.542 86.4355 465.181 86.0664 465.597 85.3281V81.1445C465.192 80.4238 464.56 80.0635 463.698 80.0635C462.995 80.0635 462.447 80.3418 462.055 80.8984C461.668 81.4551 461.475 82.2754 461.475 83.3594ZM474.122 88.1758C472.769 88.1758 471.67 87.751 470.826 86.9014C469.988 86.0459 469.569 84.9092 469.569 83.4912V83.2275C469.569 82.2783 469.751 81.4316 470.114 80.6875C470.483 79.9375 470.999 79.3545 471.661 78.9385C472.323 78.5225 473.062 78.3145 473.876 78.3145C475.171 78.3145 476.17 78.7275 476.873 79.5537C477.582 80.3799 477.937 81.5488 477.937 83.0605V83.9219H471.723C471.787 84.707 472.048 85.3281 472.505 85.7852C472.968 86.2422 473.548 86.4707 474.245 86.4707C475.224 86.4707 476.021 86.0752 476.636 85.2842L477.787 86.3828C477.406 86.9512 476.896 87.3936 476.258 87.71C475.625 88.0205 474.913 88.1758 474.122 88.1758ZM473.867 80.0283C473.281 80.0283 472.807 80.2334 472.443 80.6436C472.086 81.0537 471.857 81.625 471.758 82.3574H475.827V82.1992C475.78 81.4844 475.59 80.9453 475.256 80.582C474.922 80.2129 474.459 80.0283 473.867 80.0283Z" fill="black"/>
<path d="M141.103 267.288L141.164 268.281C141.832 267.502 142.746 267.112 143.906 267.112C145.178 267.112 146.048 267.599 146.517 268.571C147.208 267.599 148.181 267.112 149.435 267.112C150.483 267.112 151.263 267.402 151.772 267.982C152.288 268.562 152.552 269.418 152.563 270.549V276.798H150.428V270.61C150.428 270.007 150.296 269.564 150.032 269.283C149.769 269.002 149.332 268.861 148.723 268.861C148.236 268.861 147.838 268.993 147.527 269.257C147.223 269.515 147.009 269.854 146.886 270.276L146.895 276.798H144.759V270.54C144.729 269.421 144.158 268.861 143.045 268.861C142.189 268.861 141.583 269.21 141.226 269.907V276.798H139.09V267.288H141.103ZM160.438 276.798C160.345 276.616 160.263 276.32 160.192 275.91C159.513 276.619 158.681 276.974 157.696 276.974C156.741 276.974 155.962 276.701 155.358 276.156C154.755 275.611 154.453 274.937 154.453 274.135C154.453 273.121 154.828 272.345 155.578 271.806C156.334 271.261 157.412 270.988 158.812 270.988H160.122V270.364C160.122 269.872 159.984 269.479 159.709 269.186C159.434 268.888 159.015 268.738 158.452 268.738C157.966 268.738 157.567 268.861 157.257 269.107C156.946 269.348 156.791 269.655 156.791 270.03H154.655C154.655 269.509 154.828 269.022 155.174 268.571C155.52 268.114 155.988 267.757 156.58 267.499C157.178 267.241 157.843 267.112 158.575 267.112C159.688 267.112 160.576 267.393 161.238 267.956C161.9 268.513 162.24 269.298 162.258 270.311V274.6C162.258 275.456 162.378 276.139 162.618 276.648V276.798H160.438ZM158.092 275.26C158.514 275.26 158.909 275.157 159.278 274.952C159.653 274.747 159.935 274.472 160.122 274.126V272.333H158.971C158.18 272.333 157.585 272.471 157.187 272.746C156.788 273.021 156.589 273.411 156.589 273.915C156.589 274.325 156.724 274.653 156.993 274.899C157.269 275.14 157.635 275.26 158.092 275.26ZM169.474 269.239C169.192 269.192 168.902 269.169 168.604 269.169C167.625 269.169 166.966 269.544 166.626 270.294V276.798H164.49V267.288H166.529L166.582 268.351C167.098 267.525 167.812 267.112 168.727 267.112C169.031 267.112 169.283 267.153 169.482 267.235L169.474 269.239ZM173.912 272.72L172.963 273.695V276.798H170.827V263.298H172.963V271.085L173.631 270.25L176.259 267.288H178.825L175.292 271.252L179.203 276.798H176.733L173.912 272.72ZM184.239 276.974C182.886 276.974 181.787 276.549 180.943 275.699C180.105 274.844 179.687 273.707 179.687 272.289V272.025C179.687 271.076 179.868 270.229 180.231 269.485C180.601 268.735 181.116 268.152 181.778 267.736C182.44 267.32 183.179 267.112 183.993 267.112C185.288 267.112 186.287 267.525 186.99 268.351C187.699 269.178 188.054 270.347 188.054 271.858V272.72H181.84C181.904 273.505 182.165 274.126 182.622 274.583C183.085 275.04 183.665 275.268 184.362 275.268C185.341 275.268 186.138 274.873 186.753 274.082L187.904 275.181C187.523 275.749 187.014 276.191 186.375 276.508C185.742 276.818 185.03 276.974 184.239 276.974ZM183.984 268.826C183.398 268.826 182.924 269.031 182.561 269.441C182.203 269.851 181.975 270.423 181.875 271.155H185.944V270.997C185.897 270.282 185.707 269.743 185.373 269.38C185.039 269.011 184.576 268.826 183.984 268.826ZM194.698 269.239C194.417 269.192 194.127 269.169 193.828 269.169C192.85 269.169 192.19 269.544 191.851 270.294V276.798H189.715V267.288H191.754L191.807 268.351C192.322 267.525 193.037 267.112 193.951 267.112C194.256 267.112 194.508 267.153 194.707 267.235L194.698 269.239ZM201.378 274.214C201.378 273.833 201.22 273.543 200.903 273.344C200.593 273.144 200.074 272.969 199.348 272.816C198.621 272.664 198.015 272.471 197.528 272.236C196.462 271.721 195.929 270.974 195.929 269.995C195.929 269.175 196.274 268.489 196.966 267.938C197.657 267.388 198.536 267.112 199.603 267.112C200.739 267.112 201.656 267.393 202.354 267.956C203.057 268.518 203.408 269.248 203.408 270.144H201.272C201.272 269.734 201.12 269.394 200.815 269.125C200.511 268.85 200.106 268.712 199.603 268.712C199.134 268.712 198.75 268.82 198.451 269.037C198.158 269.254 198.012 269.544 198.012 269.907C198.012 270.235 198.149 270.49 198.425 270.672C198.7 270.853 199.257 271.038 200.095 271.225C200.933 271.407 201.589 271.627 202.063 271.885C202.544 272.137 202.898 272.441 203.127 272.799C203.361 273.156 203.479 273.59 203.479 274.1C203.479 274.955 203.124 275.649 202.415 276.183C201.706 276.71 200.777 276.974 199.629 276.974C198.85 276.974 198.155 276.833 197.546 276.552C196.937 276.27 196.462 275.884 196.122 275.392C195.782 274.899 195.612 274.369 195.612 273.801H197.687C197.716 274.305 197.906 274.694 198.258 274.97C198.609 275.239 199.075 275.374 199.655 275.374C200.218 275.374 200.646 275.268 200.938 275.058C201.231 274.841 201.378 274.559 201.378 274.214ZM215.317 272.632C215.188 273.997 214.685 275.063 213.806 275.831C212.927 276.593 211.758 276.974 210.299 276.974C209.279 276.974 208.38 276.733 207.601 276.253C206.827 275.767 206.229 275.078 205.808 274.187C205.386 273.297 205.166 272.263 205.148 271.085V269.89C205.148 268.683 205.362 267.619 205.79 266.699C206.218 265.779 206.83 265.07 207.627 264.572C208.43 264.074 209.355 263.825 210.404 263.825C211.816 263.825 212.953 264.209 213.814 264.976C214.676 265.744 215.177 266.828 215.317 268.228H213.103C212.997 267.309 212.728 266.646 212.294 266.242C211.866 265.832 211.236 265.627 210.404 265.627C209.438 265.627 208.693 265.981 208.172 266.69C207.656 267.393 207.393 268.428 207.381 269.793V270.927C207.381 272.309 207.627 273.364 208.119 274.091C208.617 274.817 209.344 275.181 210.299 275.181C211.172 275.181 211.828 274.984 212.268 274.592C212.707 274.199 212.985 273.546 213.103 272.632H215.317ZM216.706 271.955C216.706 271.023 216.891 270.185 217.26 269.441C217.629 268.691 218.147 268.117 218.815 267.719C219.483 267.314 220.251 267.112 221.118 267.112C222.401 267.112 223.441 267.525 224.238 268.351C225.041 269.178 225.475 270.273 225.539 271.639L225.548 272.14C225.548 273.077 225.366 273.915 225.003 274.653C224.646 275.392 224.13 275.963 223.456 276.367C222.788 276.771 222.015 276.974 221.136 276.974C219.794 276.974 218.719 276.528 217.91 275.638C217.107 274.741 216.706 273.549 216.706 272.06V271.955ZM218.842 272.14C218.842 273.118 219.044 273.886 219.448 274.442C219.853 274.993 220.415 275.268 221.136 275.268C221.856 275.268 222.416 274.987 222.814 274.425C223.219 273.862 223.421 273.039 223.421 271.955C223.421 270.994 223.213 270.232 222.797 269.67C222.387 269.107 221.827 268.826 221.118 268.826C220.421 268.826 219.867 269.104 219.457 269.661C219.047 270.212 218.842 271.038 218.842 272.14ZM229.336 267.288L229.397 268.387C230.101 267.537 231.023 267.112 232.166 267.112C234.146 267.112 235.154 268.246 235.189 270.514V276.798H233.054V270.637C233.054 270.033 232.922 269.588 232.658 269.301C232.4 269.008 231.976 268.861 231.384 268.861C230.522 268.861 229.881 269.251 229.459 270.03V276.798H227.323V267.288H229.336ZM240.05 264.976V267.288H241.729V268.87H240.05V274.179C240.05 274.542 240.12 274.806 240.261 274.97C240.407 275.128 240.665 275.207 241.034 275.207C241.28 275.207 241.529 275.178 241.781 275.119V276.771C241.295 276.906 240.826 276.974 240.375 276.974C238.734 276.974 237.914 276.068 237.914 274.258V268.87H236.35V267.288H237.914V264.976H240.05ZM249.05 276.798C248.956 276.616 248.874 276.32 248.804 275.91C248.124 276.619 247.292 276.974 246.308 276.974C245.353 276.974 244.573 276.701 243.97 276.156C243.366 275.611 243.064 274.937 243.064 274.135C243.064 273.121 243.439 272.345 244.189 271.806C244.945 271.261 246.023 270.988 247.424 270.988H248.733V270.364C248.733 269.872 248.596 269.479 248.32 269.186C248.045 268.888 247.626 268.738 247.063 268.738C246.577 268.738 246.179 268.861 245.868 269.107C245.558 269.348 245.402 269.655 245.402 270.03H243.267C243.267 269.509 243.439 269.022 243.785 268.571C244.131 268.114 244.6 267.757 245.191 267.499C245.789 267.241 246.454 267.112 247.187 267.112C248.3 267.112 249.188 267.393 249.85 267.956C250.512 268.513 250.852 269.298 250.869 270.311V274.6C250.869 275.456 250.989 276.139 251.229 276.648V276.798H249.05ZM246.703 275.26C247.125 275.26 247.521 275.157 247.89 274.952C248.265 274.747 248.546 274.472 248.733 274.126V272.333H247.582C246.791 272.333 246.196 272.471 245.798 272.746C245.399 273.021 245.2 273.411 245.2 273.915C245.2 274.325 245.335 274.653 245.604 274.899C245.88 275.14 246.246 275.26 246.703 275.26ZM255.378 276.798H253.242V267.288H255.378V276.798ZM253.11 264.818C253.11 264.49 253.213 264.218 253.418 264.001C253.629 263.784 253.928 263.676 254.314 263.676C254.701 263.676 255 263.784 255.211 264.001C255.422 264.218 255.527 264.49 255.527 264.818C255.527 265.141 255.422 265.41 255.211 265.627C255 265.838 254.701 265.943 254.314 265.943C253.928 265.943 253.629 265.838 253.418 265.627C253.213 265.41 253.11 265.141 253.11 264.818ZM259.693 267.288L259.755 268.387C260.458 267.537 261.381 267.112 262.523 267.112C264.504 267.112 265.512 268.246 265.547 270.514V276.798H263.411V270.637C263.411 270.033 263.279 269.588 263.016 269.301C262.758 269.008 262.333 268.861 261.741 268.861C260.88 268.861 260.238 269.251 259.816 270.03V276.798H257.681V267.288H259.693ZM271.919 276.974C270.565 276.974 269.467 276.549 268.623 275.699C267.785 274.844 267.366 273.707 267.366 272.289V272.025C267.366 271.076 267.548 270.229 267.911 269.485C268.28 268.735 268.796 268.152 269.458 267.736C270.12 267.32 270.858 267.112 271.673 267.112C272.968 267.112 273.967 267.525 274.67 268.351C275.379 269.178 275.733 270.347 275.733 271.858V272.72H269.52C269.584 273.505 269.845 274.126 270.302 274.583C270.765 275.04 271.345 275.268 272.042 275.268C273.021 275.268 273.817 274.873 274.433 274.082L275.584 275.181C275.203 275.749 274.693 276.191 274.055 276.508C273.422 276.818 272.71 276.974 271.919 276.974ZM271.664 268.826C271.078 268.826 270.604 269.031 270.24 269.441C269.883 269.851 269.654 270.423 269.555 271.155H273.624V270.997C273.577 270.282 273.387 269.743 273.053 269.38C272.719 269.011 272.256 268.826 271.664 268.826ZM282.378 269.239C282.097 269.192 281.807 269.169 281.508 269.169C280.529 269.169 279.87 269.544 279.53 270.294V276.798H277.395V267.288H279.434L279.486 268.351C280.002 267.525 280.717 267.112 281.631 267.112C281.936 267.112 282.188 267.153 282.387 267.235L282.378 269.239Z" fill="black"/>
<path d="M191.008 71.416C191.008 71.0352 190.85 70.7451 190.534 70.5459C190.223 70.3467 189.704 70.1709 188.978 70.0186C188.251 69.8662 187.645 69.6729 187.159 69.4385C186.092 68.9229 185.559 68.1758 185.559 67.1973C185.559 66.377 185.905 65.6914 186.596 65.1406C187.287 64.5898 188.166 64.3145 189.233 64.3145C190.37 64.3145 191.286 64.5957 191.984 65.1582C192.687 65.7207 193.038 66.4502 193.038 67.3467H190.903C190.903 66.9365 190.75 66.5967 190.446 66.3271C190.141 66.0518 189.737 65.9141 189.233 65.9141C188.764 65.9141 188.38 66.0225 188.081 66.2393C187.788 66.4561 187.642 66.7461 187.642 67.1094C187.642 67.4375 187.78 67.6924 188.055 67.874C188.33 68.0557 188.887 68.2402 189.725 68.4277C190.563 68.6094 191.219 68.8291 191.694 69.0869C192.174 69.3389 192.529 69.6436 192.757 70.001C192.992 70.3584 193.109 70.792 193.109 71.3018C193.109 72.1572 192.754 72.8516 192.045 73.3848C191.336 73.9121 190.408 74.1758 189.259 74.1758C188.48 74.1758 187.786 74.0352 187.176 73.7539C186.567 73.4727 186.092 73.0859 185.752 72.5938C185.412 72.1016 185.243 71.5713 185.243 71.0029H187.317C187.346 71.5068 187.536 71.8965 187.888 72.1719C188.24 72.4414 188.705 72.5762 189.286 72.5762C189.848 72.5762 190.276 72.4707 190.569 72.2598C190.862 72.043 191.008 71.7617 191.008 71.416ZM197.248 74H195.113V60.5H197.248V74ZM201.854 74H199.718V64.4902H201.854V74ZM199.586 62.0205C199.586 61.6924 199.689 61.4199 199.894 61.2031C200.105 60.9863 200.404 60.8779 200.79 60.8779C201.177 60.8779 201.476 60.9863 201.687 61.2031C201.898 61.4199 202.003 61.6924 202.003 62.0205C202.003 62.3428 201.898 62.6123 201.687 62.8291C201.476 63.04 201.177 63.1455 200.79 63.1455C200.404 63.1455 200.105 63.04 199.894 62.8291C199.689 62.6123 199.586 62.3428 199.586 62.0205ZM203.787 69.1748C203.787 67.71 204.127 66.5352 204.807 65.6504C205.487 64.7598 206.398 64.3145 207.54 64.3145C208.548 64.3145 209.363 64.666 209.984 65.3691V60.5H212.12V74H210.186L210.08 73.0156C209.442 73.7891 208.589 74.1758 207.523 74.1758C206.41 74.1758 205.507 73.7275 204.816 72.8311C204.13 71.9346 203.787 70.7158 203.787 69.1748ZM205.923 69.3594C205.923 70.3262 206.108 71.082 206.477 71.627C206.852 72.166 207.382 72.4355 208.068 72.4355C208.941 72.4355 209.579 72.0459 209.984 71.2666V67.2061C209.591 66.4443 208.958 66.0635 208.085 66.0635C207.394 66.0635 206.861 66.3389 206.486 66.8896C206.111 67.4346 205.923 68.2578 205.923 69.3594ZM218.536 74.1758C217.182 74.1758 216.083 73.751 215.24 72.9014C214.402 72.0459 213.983 70.9092 213.983 69.4912V69.2275C213.983 68.2783 214.164 67.4316 214.528 66.6875C214.897 65.9375 215.412 65.3545 216.075 64.9385C216.737 64.5225 217.475 64.3145 218.289 64.3145C219.584 64.3145 220.583 64.7275 221.286 65.5537C221.995 66.3799 222.35 67.5488 222.35 69.0605V69.9219H216.136C216.201 70.707 216.461 71.3281 216.918 71.7852C217.381 72.2422 217.961 72.4707 218.659 72.4707C219.637 72.4707 220.434 72.0752 221.049 71.2842L222.201 72.3828C221.82 72.9512 221.31 73.3936 220.671 73.71C220.038 74.0205 219.327 74.1758 218.536 74.1758ZM218.281 66.0283C217.695 66.0283 217.22 66.2334 216.857 66.6436C216.499 67.0537 216.271 67.625 216.171 68.3574H220.241V68.1992C220.194 67.4844 220.003 66.9453 219.669 66.582C219.335 66.2129 218.872 66.0283 218.281 66.0283ZM229.346 71.416C229.346 71.0352 229.188 70.7451 228.871 70.5459C228.561 70.3467 228.042 70.1709 227.316 70.0186C226.589 69.8662 225.983 69.6729 225.496 69.4385C224.43 68.9229 223.897 68.1758 223.897 67.1973C223.897 66.377 224.243 65.6914 224.934 65.1406C225.625 64.5898 226.504 64.3145 227.571 64.3145C228.707 64.3145 229.624 64.5957 230.322 65.1582C231.025 65.7207 231.376 66.4502 231.376 67.3467H229.241C229.241 66.9365 229.088 66.5967 228.784 66.3271C228.479 66.0518 228.075 65.9141 227.571 65.9141C227.102 65.9141 226.718 66.0225 226.419 66.2393C226.126 66.4561 225.98 66.7461 225.98 67.1094C225.98 67.4375 226.118 67.6924 226.393 67.874C226.668 68.0557 227.225 68.2402 228.063 68.4277C228.901 68.6094 229.557 68.8291 230.032 69.0869C230.512 69.3389 230.867 69.6436 231.095 70.001C231.329 70.3584 231.447 70.792 231.447 71.3018C231.447 72.1572 231.092 72.8516 230.383 73.3848C229.674 73.9121 228.745 74.1758 227.597 74.1758C226.818 74.1758 226.123 74.0352 225.514 73.7539C224.905 73.4727 224.43 73.0859 224.09 72.5938C223.75 72.1016 223.58 71.5713 223.58 71.0029H225.655C225.684 71.5068 225.874 71.8965 226.226 72.1719C226.578 72.4414 227.043 72.5762 227.623 72.5762C228.186 72.5762 228.614 72.4707 228.907 72.2598C229.2 72.043 229.346 71.7617 229.346 71.416ZM243.558 70.8359L245.527 61.2031H247.733L244.78 74H242.653L240.218 64.6572L237.731 74H235.595L232.642 61.2031H234.848L236.834 70.8184L239.278 61.2031H241.141L243.558 70.8359ZM253.938 66.4414C253.657 66.3945 253.367 66.3711 253.068 66.3711C252.089 66.3711 251.43 66.7461 251.09 67.4961V74H248.954V64.4902H250.994L251.046 65.5537C251.562 64.7275 252.277 64.3145 253.191 64.3145C253.495 64.3145 253.747 64.3555 253.947 64.4375L253.938 66.4414ZM260.705 74C260.612 73.8184 260.53 73.5225 260.459 73.1123C259.78 73.8213 258.948 74.1758 257.963 74.1758C257.008 74.1758 256.229 73.9033 255.625 73.3584C255.022 72.8135 254.72 72.1396 254.72 71.3369C254.72 70.3232 255.095 69.5469 255.845 69.0078C256.601 68.4629 257.679 68.1904 259.079 68.1904H260.389V67.5664C260.389 67.0742 260.251 66.6816 259.976 66.3887C259.701 66.0898 259.282 65.9404 258.719 65.9404C258.233 65.9404 257.834 66.0635 257.524 66.3096C257.213 66.5498 257.058 66.8574 257.058 67.2324H254.922C254.922 66.7109 255.095 66.2246 255.441 65.7734C255.786 65.3164 256.255 64.959 256.847 64.7012C257.445 64.4434 258.11 64.3145 258.842 64.3145C259.955 64.3145 260.843 64.5957 261.505 65.1582C262.167 65.7148 262.507 66.5 262.525 67.5137V71.8027C262.525 72.6582 262.645 73.3408 262.885 73.8506V74H260.705ZM258.359 72.4619C258.781 72.4619 259.176 72.3594 259.545 72.1543C259.92 71.9492 260.202 71.6738 260.389 71.3281V69.5352H259.238C258.447 69.5352 257.852 69.6729 257.453 69.9482C257.055 70.2236 256.856 70.6133 256.856 71.1172C256.856 71.5273 256.991 71.8555 257.26 72.1016C257.536 72.3418 257.902 72.4619 258.359 72.4619ZM273.089 69.3418C273.089 70.8125 272.755 71.9873 272.087 72.8662C271.419 73.7393 270.523 74.1758 269.398 74.1758C268.355 74.1758 267.52 73.833 266.893 73.1475V77.6562H264.757V64.4902H266.726L266.814 65.457C267.441 64.6953 268.293 64.3145 269.371 64.3145C270.532 64.3145 271.44 64.748 272.096 65.6152C272.758 66.4766 273.089 67.6748 273.089 69.21V69.3418ZM270.962 69.1572C270.962 68.208 270.772 67.4551 270.391 66.8984C270.016 66.3418 269.477 66.0635 268.774 66.0635C267.901 66.0635 267.274 66.4238 266.893 67.1445V71.3633C267.28 72.1016 267.912 72.4707 268.791 72.4707C269.471 72.4707 270.001 72.1982 270.382 71.6533C270.769 71.1025 270.962 70.2705 270.962 69.1572ZM283.232 69.3418C283.232 70.8125 282.898 71.9873 282.23 72.8662C281.562 73.7393 280.665 74.1758 279.54 74.1758C278.497 74.1758 277.662 73.833 277.036 73.1475V77.6562H274.9V64.4902H276.869L276.956 65.457C277.583 64.6953 278.436 64.3145 279.514 64.3145C280.674 64.3145 281.582 64.748 282.239 65.6152C282.901 66.4766 283.232 67.6748 283.232 69.21V69.3418ZM281.105 69.1572C281.105 68.208 280.914 67.4551 280.534 66.8984C280.159 66.3418 279.62 66.0635 278.916 66.0635C278.043 66.0635 277.416 66.4238 277.036 67.1445V71.3633C277.422 72.1016 278.055 72.4707 278.934 72.4707C279.614 72.4707 280.144 72.1982 280.525 71.6533C280.911 71.1025 281.105 70.2705 281.105 69.1572ZM289.235 74.1758C287.881 74.1758 286.783 73.751 285.939 72.9014C285.101 72.0459 284.682 70.9092 284.682 69.4912V69.2275C284.682 68.2783 284.864 67.4316 285.227 66.6875C285.596 65.9375 286.112 65.3545 286.774 64.9385C287.436 64.5225 288.174 64.3145 288.989 64.3145C290.284 64.3145 291.283 64.7275 291.986 65.5537C292.695 66.3799 293.049 67.5488 293.049 69.0605V69.9219H286.835C286.9 70.707 287.161 71.3281 287.618 71.7852C288.08 72.2422 288.661 72.4707 289.358 72.4707C290.336 72.4707 291.133 72.0752 291.748 71.2842L292.9 72.3828C292.519 72.9512 292.009 73.3936 291.37 73.71C290.738 74.0205 290.026 74.1758 289.235 74.1758ZM288.98 66.0283C288.394 66.0283 287.919 66.2334 287.556 66.6436C287.199 67.0537 286.97 67.625 286.87 68.3574H290.94V68.1992C290.893 67.4844 290.703 66.9453 290.369 66.582C290.035 66.2129 289.572 66.0283 288.98 66.0283ZM299.694 66.4414C299.412 66.3945 299.122 66.3711 298.824 66.3711C297.845 66.3711 297.186 66.7461 296.846 67.4961V74H294.71V64.4902H296.749L296.802 65.5537C297.318 64.7275 298.033 64.3145 298.947 64.3145C299.251 64.3145 299.503 64.3555 299.703 64.4375L299.694 66.4414Z" fill="black"/>
<path d="M375.103 241.49L375.164 242.483C375.832 241.704 376.746 241.314 377.906 241.314C379.178 241.314 380.048 241.801 380.517 242.773C381.208 241.801 382.181 241.314 383.435 241.314C384.483 241.314 385.263 241.604 385.772 242.185C386.288 242.765 386.552 243.62 386.563 244.751V251H384.428V244.812C384.428 244.209 384.296 243.767 384.032 243.485C383.769 243.204 383.332 243.063 382.723 243.063C382.236 243.063 381.838 243.195 381.527 243.459C381.223 243.717 381.009 244.057 380.886 244.479L380.895 251H378.759V244.742C378.729 243.623 378.158 243.063 377.045 243.063C376.189 243.063 375.583 243.412 375.226 244.109V251H373.09V241.49H375.103ZM394.438 251C394.345 250.818 394.263 250.522 394.192 250.112C393.513 250.821 392.681 251.176 391.696 251.176C390.741 251.176 389.962 250.903 389.358 250.358C388.755 249.813 388.453 249.14 388.453 248.337C388.453 247.323 388.828 246.547 389.578 246.008C390.334 245.463 391.412 245.19 392.812 245.19H394.122V244.566C394.122 244.074 393.984 243.682 393.709 243.389C393.434 243.09 393.015 242.94 392.452 242.94C391.966 242.94 391.567 243.063 391.257 243.31C390.946 243.55 390.791 243.857 390.791 244.232H388.655C388.655 243.711 388.828 243.225 389.174 242.773C389.52 242.316 389.988 241.959 390.58 241.701C391.178 241.443 391.843 241.314 392.575 241.314C393.688 241.314 394.576 241.596 395.238 242.158C395.9 242.715 396.24 243.5 396.258 244.514V248.803C396.258 249.658 396.378 250.341 396.618 250.851V251H394.438ZM392.092 249.462C392.514 249.462 392.909 249.359 393.278 249.154C393.653 248.949 393.935 248.674 394.122 248.328V246.535H392.971C392.18 246.535 391.585 246.673 391.187 246.948C390.788 247.224 390.589 247.613 390.589 248.117C390.589 248.527 390.724 248.855 390.993 249.102C391.269 249.342 391.635 249.462 392.092 249.462ZM403.474 243.441C403.192 243.395 402.902 243.371 402.604 243.371C401.625 243.371 400.966 243.746 400.626 244.496V251H398.49V241.49H400.529L400.582 242.554C401.098 241.728 401.812 241.314 402.727 241.314C403.031 241.314 403.283 241.355 403.482 241.438L403.474 243.441ZM407.912 246.922L406.963 247.897V251H404.827V237.5H406.963V245.287L407.631 244.452L410.259 241.49H412.825L409.292 245.454L413.203 251H410.733L407.912 246.922ZM418.239 251.176C416.886 251.176 415.787 250.751 414.943 249.901C414.105 249.046 413.687 247.909 413.687 246.491V246.228C413.687 245.278 413.868 244.432 414.231 243.688C414.601 242.938 415.116 242.354 415.778 241.938C416.44 241.522 417.179 241.314 417.993 241.314C419.288 241.314 420.287 241.728 420.99 242.554C421.699 243.38 422.054 244.549 422.054 246.061V246.922H415.84C415.904 247.707 416.165 248.328 416.622 248.785C417.085 249.242 417.665 249.471 418.362 249.471C419.341 249.471 420.138 249.075 420.753 248.284L421.904 249.383C421.523 249.951 421.014 250.394 420.375 250.71C419.742 251.021 419.03 251.176 418.239 251.176ZM417.984 243.028C417.398 243.028 416.924 243.233 416.561 243.644C416.203 244.054 415.975 244.625 415.875 245.357H419.944V245.199C419.897 244.484 419.707 243.945 419.373 243.582C419.039 243.213 418.576 243.028 417.984 243.028ZM428.698 243.441C428.417 243.395 428.127 243.371 427.828 243.371C426.85 243.371 426.19 243.746 425.851 244.496V251H423.715V241.49H425.754L425.807 242.554C426.322 241.728 427.037 241.314 427.951 241.314C428.256 241.314 428.508 241.355 428.707 241.438L428.698 243.441ZM435.378 248.416C435.378 248.035 435.22 247.745 434.903 247.546C434.593 247.347 434.074 247.171 433.348 247.019C432.621 246.866 432.015 246.673 431.528 246.438C430.462 245.923 429.929 245.176 429.929 244.197C429.929 243.377 430.274 242.691 430.966 242.141C431.657 241.59 432.536 241.314 433.603 241.314C434.739 241.314 435.656 241.596 436.354 242.158C437.057 242.721 437.408 243.45 437.408 244.347H435.272C435.272 243.937 435.12 243.597 434.815 243.327C434.511 243.052 434.106 242.914 433.603 242.914C433.134 242.914 432.75 243.022 432.451 243.239C432.158 243.456 432.012 243.746 432.012 244.109C432.012 244.438 432.149 244.692 432.425 244.874C432.7 245.056 433.257 245.24 434.095 245.428C434.933 245.609 435.589 245.829 436.063 246.087C436.544 246.339 436.898 246.644 437.127 247.001C437.361 247.358 437.479 247.792 437.479 248.302C437.479 249.157 437.124 249.852 436.415 250.385C435.706 250.912 434.777 251.176 433.629 251.176C432.85 251.176 432.155 251.035 431.546 250.754C430.937 250.473 430.462 250.086 430.122 249.594C429.782 249.102 429.612 248.571 429.612 248.003H431.687C431.716 248.507 431.906 248.896 432.258 249.172C432.609 249.441 433.075 249.576 433.655 249.576C434.218 249.576 434.646 249.471 434.938 249.26C435.231 249.043 435.378 248.762 435.378 248.416Z" fill="black"/>
<rect x="19" y="38" width="579" height="308" stroke="black" stroke-width="2" stroke-dasharray="5 5"/>
<rect x="25" y="60" width="80" height="256" stroke="black" stroke-width="2"/>
<rect x="511" y="60" width="80" height="256" stroke="black" stroke-width="2"/>
<rect x="168" y="299" width="288" height="35" stroke="black" stroke-width="2"/>
<rect x="281" y="307" width="20" height="20" stroke="black" stroke-width="2"/>
<rect x="323" y="307" width="20" height="20" stroke="black" stroke-width="2"/>
<rect x="44" y="167" width="42" height="42" stroke="black" stroke-width="2"/>
<rect x="530" y="167" width="42" height="42" stroke="black" stroke-width="2"/>
<path d="M86.5 176L122 162L242 162" stroke="#FFA500" stroke-width="3"/>
<path d="M145.5 38L177 78L299 78" stroke="#FFA500" stroke-width="3"/>
<path d="M64.7022 256.53L140.5 225.5L302 225.5" stroke="#FFA500" stroke-width="3"/>
<path d="M530 172.5L499 160.68L411 160.68" stroke="#FFA500" stroke-width="3"/>
<path d="M281 282.297L143.5 282.297L175 311.5" stroke="#FFA500" stroke-width="3"/>
<path d="M342.5 321.5L435 255L370 255L282 312.5" stroke="#FFA500" stroke-width="3"/>
<path d="M558.298 124.45L482.5 93.42L345.5 93.42" stroke="#FFA500" stroke-width="3"/>
</svg>
